<?xml version="1.0" encoding="utf-8"?>
<!-- Generator: Adobe Illustrator 27.5.0, SVG Export Plug-In . SVG Version: 6.00 Build 0)  -->
<svg version="1.1" id="Layer_1" xmlns="http://www.w3.org/2000/svg" xmlns:xlink="http://www.w3.org/1999/xlink" x="0px" y="0px"
	 viewBox="0 0 400 400" style="enable-background:new 0 0 400 400;" xml:space="preserve">
<g>
	<g>
		<g style="enable-background:new    ;">
			<g style="enable-background:new    ;">
				<defs>
					<path id="SVGID_1_" style="enable-background:new    ;" d="M246.4,84.409l2.705-1.572c0.989-0.575,2.36-0.494,3.874,0.379
						l-2.705,1.572C248.76,83.914,247.389,83.834,246.4,84.409z"/>
				</defs>
				<use xlink:href="#SVGID_1_"  style="overflow:visible;fill:#DADAF9;"/>
				<clipPath id="SVGID_00000116205134729980095870000004127964159370813061_">
					<use xlink:href="#SVGID_1_"  style="overflow:visible;"/>
				</clipPath>
				<g style="clip-path:url(#SVGID_00000116205134729980095870000004127964159370813061_);enable-background:new    ;">
					<path style="fill:#DADAF9;" d="M246.4,84.409l2.705-1.572c0.989-0.575,2.36-0.494,3.874,0.379l-2.705,1.572
						C248.76,83.914,247.389,83.834,246.4,84.409L246.4,84.409z"/>
				</g>
			</g>
			<g style="enable-background:new    ;">
				<defs>
					<path id="SVGID_00000103259514677151612160000004435773012742327959_" style="enable-background:new    ;" d="M358.999,233.932
						l-2.705,1.572c0.977-0.568,1.583-1.775,1.588-3.492l2.705-1.572C360.582,232.158,359.976,233.364,358.999,233.932z"/>
				</defs>
				<use xlink:href="#SVGID_00000103259514677151612160000004435773012742327959_"  style="overflow:visible;fill:#DADAF9;"/>
				<clipPath id="SVGID_00000080206911747322324910000015713894893351221430_">
					<use xlink:href="#SVGID_00000103259514677151612160000004435773012742327959_"  style="overflow:visible;"/>
				</clipPath>
				<g style="clip-path:url(#SVGID_00000080206911747322324910000015713894893351221430_);enable-background:new    ;">
					<path style="fill:#DADAF9;" d="M357.882,232.012l2.705-1.572c-0.005,1.717-0.611,2.924-1.588,3.492l-2.705,1.572
						C357.271,234.936,357.877,233.729,357.882,232.012L357.882,232.012z"/>
				</g>
			</g>
			<g>
				<polygon style="fill:#DADAF9;" points="358.105,153.311 360.81,151.739 360.587,230.441 357.882,232.012 				"/>
			</g>
			<g>
				<polygon style="fill:#DADAF9;" points="250.273,84.788 252.978,83.216 355.383,142.34 352.679,143.912 				"/>
			</g>
			<g style="enable-background:new    ;">
				<defs>
					<path id="SVGID_00000098941908892134709870000013310625959116842392_" style="enable-background:new    ;" d="M352.679,143.912
						l2.705-1.572c3.004,1.734,5.436,5.947,5.426,9.399l-2.705,1.572C358.115,149.859,355.683,145.646,352.679,143.912z"/>
				</defs>
				<use xlink:href="#SVGID_00000098941908892134709870000013310625959116842392_"  style="overflow:visible;fill:#DADAF9;"/>
				<clipPath id="SVGID_00000158712703713903655290000016782437494733852545_">
					<use xlink:href="#SVGID_00000098941908892134709870000013310625959116842392_"  style="overflow:visible;"/>
				</clipPath>
				<g style="clip-path:url(#SVGID_00000158712703713903655290000016782437494733852545_);enable-background:new    ;">
					<path style="fill:#DADAF9;" d="M352.679,143.912l2.705-1.572c3.004,1.734,5.436,5.947,5.426,9.399l-2.705,1.572
						C358.115,149.859,355.683,145.646,352.679,143.912L352.679,143.912z"/>
				</g>
			</g>
			<g>
				<path style="fill:#19121B;" d="M358.105,153.311c0.01-3.452-2.423-7.665-5.426-9.399L250.273,84.788
					c-3.008-1.737-5.452-0.339-5.462,3.113l-0.011,3.813l113.294,65.412L358.105,153.311z"/>
				<path style="fill:#262028;" d="M244.801,91.714l-0.213,74.888c-0.009,3.457,2.418,7.662,5.426,9.399l102.406,59.124
					c3.004,1.734,5.452,0.344,5.462-3.113l0.212-74.886L244.801,91.714z"/>
			</g>
		</g>
	</g>
	<g style="opacity:0.9;">
		<g>
			<polygon style="fill:#EDECF8;" points="306.4,140.279 319.497,147.841 319.497,144.085 306.4,136.523 			"/>
			<polygon style="fill:#EDECF8;" points="253.238,105.831 257.845,108.491 257.845,112.247 253.238,109.587 			"/>
			<polygon style="fill:#EDECF8;" points="275.997,122.727 285.464,128.192 285.464,124.436 275.997,118.97 			"/>
			<polygon style="fill:#EDECF8;" points="258.467,112.606 270.701,119.669 270.701,115.913 258.467,108.85 			"/>
			<polygon style="fill:#3A2C99;" points="271.381,120.062 275.158,122.243 275.158,118.486 271.381,116.306 			"/>
			<polygon style="fill:#FF6661;" points="286.243,128.642 305.714,139.883 305.714,136.127 286.243,124.886 			"/>
		</g>
		<g>
			<polygon style="fill:#EDECF8;" points="247.281,143.144 265.541,153.686 265.541,149.929 247.282,139.388 			"/>
			<polygon style="fill:#EDECF8;" points="283.693,164.165 293.159,169.631 293.159,165.874 283.693,160.409 			"/>
			<polygon style="fill:#EDECF8;" points="266.163,154.045 278.396,161.107 278.396,157.351 266.163,150.288 			"/>
			<polygon style="fill:#EDECF8;" points="254.878,163.882 254.878,167.639 265.541,173.795 265.541,170.039 			"/>
			<polygon style="fill:#EDECF8;" points="254.136,163.454 247.282,159.497 247.281,163.253 254.136,167.211 			"/>
			<polygon style="fill:#EDECF8;" points="266.163,174.154 278.396,181.217 278.396,177.46 266.163,170.398 			"/>
			<polygon style="fill:#3A2C99;" points="279.077,161.5 282.854,163.681 282.854,159.924 279.077,157.744 			"/>
			<polygon style="fill:#EDECF8;" points="293.939,170.081 313.409,181.322 313.409,177.565 293.939,166.324 			"/>
		</g>
		<g>
			<polygon style="fill:#EDECF8;" points="308.017,135.928 324.372,145.37 324.372,141.614 308.017,132.172 			"/>
			<polygon style="fill:#EDECF8;" points="288.773,124.818 306.683,135.158 306.683,131.402 288.773,121.061 			"/>
			<polygon style="fill:#EDECF8;" points="249.185,101.963 267.096,112.303 267.096,108.547 249.185,98.206 			"/>
			<polygon style="fill:#3A2C99;" points="274.983,116.856 287.886,124.306 287.886,120.549 274.983,113.1 			"/>
			<polygon style="fill:#EDECF8;" points="267.91,112.773 274.281,116.451 274.281,112.695 267.91,109.017 			"/>
			<polygon style="fill:#EDECF8;" points="249.185,149.434 267.096,159.775 267.096,156.018 249.185,145.677 			"/>
			<polygon style="fill:#3A2C99;" points="274.983,164.328 287.886,171.777 287.886,168.02 274.983,160.572 			"/>
			<polygon style="fill:#3A2C99;" points="290.631,184.391 279.257,177.825 279.257,181.581 290.631,188.148 			"/>
			<polygon style="fill:#EDECF8;" points="267.91,160.245 274.281,163.923 274.281,160.166 267.91,156.488 			"/>
		</g>
		<g>
			<polygon style="fill:#EDECF8;" points="308.017,167.514 324.371,176.956 324.371,173.2 308.017,163.757 			"/>
			<polygon style="fill:#EDECF8;" points="246.71,128.611 262.227,137.57 262.227,141.327 246.71,132.368 			"/>
			<polygon style="fill:#EDECF8;" points="276.714,149.442 288.248,156.101 288.248,152.344 276.714,145.685 			"/>
			<polygon style="fill:#3A2C99;" points="271.381,146.363 275.158,148.543 275.158,144.787 271.381,142.606 			"/>
			<polygon style="fill:#FF6661;" points="289.183,156.641 307.094,166.981 307.094,163.225 289.183,152.884 			"/>
			<polygon style="fill:#EDECF8;" points="263.773,142.22 270.145,145.898 270.145,142.141 263.774,138.463 			"/>
			<polygon style="fill:#BFBEED;" points="246.71,164.759 262.227,173.718 262.227,177.475 246.71,168.516 			"/>
			<polygon style="fill:#EDECF8;" points="276.714,185.59 288.248,192.249 288.248,188.492 276.714,181.833 			"/>
			<polygon style="fill:#3A2C99;" points="271.381,182.511 275.158,184.691 275.158,180.935 271.381,178.754 			"/>
			<polygon style="fill:#EDECF8;" points="263.773,178.368 270.145,182.046 270.145,178.29 263.774,174.611 			"/>
			<polygon style="fill:#BFBEED;" points="320.464,144.558 320.464,148.314 335.014,156.715 335.014,152.959 			"/>
			<polygon style="fill:#EDECF8;" points="336.561,157.608 342.932,161.286 342.932,157.529 336.561,153.851 			"/>
		</g>
		<g>
			<polygon style="fill:#EDECF8;" points="308.017,151.77 324.371,161.213 324.371,157.456 308.017,148.014 			"/>
			<polygon style="fill:#EDECF8;" points="286.654,139.437 307.094,151.238 307.094,147.482 286.654,135.681 			"/>
			<polygon style="fill:#EDECF8;" points="249.185,117.831 267.096,128.171 267.096,124.414 249.185,114.074 			"/>
			<polygon style="fill:#EDECF8;" points="274.983,132.724 285.709,138.917 285.709,135.16 274.983,128.968 			"/>
			<polygon style="fill:#EDECF8;" points="267.91,128.641 274.281,132.319 274.281,128.563 267.91,124.884 			"/>
		</g>
		<g>
			<polygon style="fill:#3A2C99;" points="301.586,142.786 319.497,153.127 319.497,149.37 301.586,139.029 			"/>
			<polygon style="fill:#FF6661;" points="269.974,124.535 287.885,134.876 287.885,131.119 269.974,120.779 			"/>
			<polygon style="fill:#BFBEED;" points="288.855,135.436 300.389,142.094 300.389,138.338 288.856,131.679 			"/>
			<polygon style="fill:#3A2C99;" points="258.836,118.104 265.207,121.783 265.207,118.026 258.836,114.349 			"/>
		</g>
		<g>
			<polygon style="fill:#EDECF8;" points="301.586,169.211 319.497,179.551 319.497,175.795 301.586,165.454 			"/>
			<polygon style="fill:#EDECF8;" points="267.91,149.768 285.002,159.636 285.002,155.88 267.91,146.012 			"/>
			<polygon style="fill:#3A2C99;" points="285.709,160.044 301.005,168.875 301.005,165.119 285.709,156.288 			"/>
			<polygon style="fill:#BFBEED;" points="258.836,144.53 267.424,149.488 267.424,145.731 258.836,140.773 			"/>
		</g>
		<g>
			<polygon style="fill:#EDECF8;" points="275.912,138.533 294.093,149.029 294.093,145.273 275.912,134.777 			"/>
			<polygon style="fill:#BFBEED;" points="294.793,149.434 311.065,158.828 311.066,155.072 294.793,145.677 			"/>
			<polygon style="fill:#FF6661;" points="347.863,180.073 355.473,184.466 355.473,180.71 347.863,176.316 			"/>
			<polygon style="fill:#EDECF8;" points="330.769,170.204 347.041,179.598 347.041,175.842 330.769,166.447 			"/>
			<polygon style="fill:#EDECF8;" points="268.144,134.048 274.515,137.726 274.515,133.97 268.144,130.292 			"/>
			<polygon style="fill:#BFBEED;" points="275.912,169.821 294.093,180.317 294.093,176.561 275.912,166.064 			"/>
			<polygon style="fill:#EDECF8;" points="268.144,165.336 274.515,169.014 274.515,165.258 268.144,161.58 			"/>
		</g>
		<g>
			<polygon style="fill:#FF6661;" points="302.316,159.062 313.77,165.675 313.77,161.919 302.316,155.305 			"/>
			<polygon style="fill:#BFBEED;" points="270.337,140.6 301.456,158.566 301.456,154.809 270.337,136.843 			"/>
			<polygon style="fill:#BFBEED;" points="325.106,145.78 356.224,163.745 356.224,159.989 325.106,142.023 			"/>
			<polygon style="fill:#BFBEED;" points="289.923,193.506 303.02,201.067 303.02,197.311 289.923,189.749 			"/>
			<polygon style="fill:#EDECF8;" points="291.54,188.663 307.894,198.105 307.894,194.349 291.54,184.907 			"/>
			<polygon style="fill:#EDECF8;" points="303.987,197.784 303.987,201.54 318.537,209.941 318.537,206.184 			"/>
			<polygon style="fill:#EDECF8;" points="320.084,210.834 326.455,214.512 326.455,210.755 320.084,207.077 			"/>
			<polygon style="fill:#EDECF8;" points="308.628,198.515 339.747,216.48 339.747,212.724 308.628,194.758 			"/>
			<polygon style="fill:#FF6661;" points="259.835,134.536 269.56,140.151 269.56,136.395 259.835,130.78 			"/>
			<polygon style="fill:#EDECF8;" points="270.337,171.399 301.456,189.365 301.456,185.609 270.337,167.643 			"/>
			<polygon style="fill:#FF6661;" points="259.835,165.336 269.56,170.951 269.56,167.194 259.835,161.58 			"/>
		</g>
		<polygon style="fill:#EDECF8;" points="311.887,159.303 330.068,169.799 330.068,166.043 311.887,155.547 		"/>
	</g>
</g>
<g>
	<g>
		<g style="enable-background:new    ;">
			<g style="enable-background:new    ;">
				<defs>
					<path id="SVGID_00000062175767079150969670000012284455427788032172_" style="enable-background:new    ;" d="M288.395,231.828
						l2.492-1.449c0.913-0.531,2.179-0.455,3.575,0.351l-2.492,1.449C290.573,231.372,289.308,231.297,288.395,231.828z"/>
				</defs>
				<use xlink:href="#SVGID_00000062175767079150969670000012284455427788032172_"  style="overflow:visible;fill:#FF6661;"/>
				<clipPath id="SVGID_00000043434648095477353650000016010329727724723117_">
					<use xlink:href="#SVGID_00000062175767079150969670000012284455427788032172_"  style="overflow:visible;"/>
				</clipPath>
				<g style="clip-path:url(#SVGID_00000043434648095477353650000016010329727724723117_);enable-background:new    ;">
					<path style="fill:#FF6661;" d="M288.395,231.828l2.492-1.449c0.913-0.531,2.179-0.455,3.575,0.351l-2.492,1.449
						C290.573,231.372,289.308,231.297,288.395,231.828L288.395,231.828z"/>
				</g>
			</g>
			<g style="enable-background:new    ;">
				<defs>
					<path id="SVGID_00000085227359765320134090000003408058460866541455_" style="enable-background:new    ;" d="M359.298,324.082
						l-2.493,1.448c0.901-0.523,1.459-1.637,1.463-3.219l2.492-1.448C360.756,322.445,360.198,323.558,359.298,324.082z"/>
				</defs>
				<use xlink:href="#SVGID_00000085227359765320134090000003408058460866541455_"  style="overflow:visible;fill:#FF6661;"/>
				<clipPath id="SVGID_00000083806261938166476110000001410408539696607914_">
					<use xlink:href="#SVGID_00000085227359765320134090000003408058460866541455_"  style="overflow:visible;"/>
				</clipPath>
				<g style="clip-path:url(#SVGID_00000083806261938166476110000001410408539696607914_);enable-background:new    ;">
					<path style="fill:#FF6661;" d="M358.268,322.311l2.492-1.448c-0.004,1.583-0.563,2.696-1.463,3.219l-2.493,1.448
						C357.706,325.007,358.264,323.894,358.268,322.311L358.268,322.311z"/>
				</g>
			</g>
			<g>
				<polygon style="fill:#FF6661;" points="358.399,276.306 360.891,274.857 360.76,320.862 358.268,322.311 				"/>
			</g>
			<path style="fill:#FF6661;" d="M355.89,266.196l-61.428-35.466l-2.492,1.449l61.428,35.466c2.773,1.601,5.01,5.475,5.001,8.661
				l2.492-1.448C360.9,271.671,358.663,267.796,355.89,266.196z"/>
			<g>
				<path style="fill:#E5322B;" d="M358.399,276.305c0.009-3.186-2.228-7.061-5.001-8.661l-61.428-35.466
					c-2.773-1.601-5.029-0.32-5.038,2.866l-0.008,2.768l71.466,41.262L358.399,276.305z"/>
				<path style="fill:#FE4340;" d="M286.924,237.812l-0.122,43.237c-0.009,3.186,2.232,7.063,5.005,8.664l61.428,35.465
					c2.773,1.601,5.024,0.318,5.033-2.868l0.122-43.236L286.924,237.812z"/>
			</g>
		</g>
	</g>
	<g>
		<g>
			<polygon style="fill:#EDECF8;" points="341.746,279.14 353.468,285.908 353.468,282.546 341.746,275.778 			"/>
			<polygon style="fill:#EDECF8;" points="294.164,248.308 298.288,250.688 298.288,254.051 294.164,251.669 			"/>
			<polygon style="fill:#EDECF8;" points="314.534,263.43 323.007,268.321 323.007,264.96 314.534,260.068 			"/>
			<polygon style="fill:#EDECF8;" points="298.845,254.372 309.794,260.693 309.794,257.331 298.845,251.01 			"/>
			<polygon style="fill:#FFC400;" points="310.403,261.045 313.784,262.997 313.784,259.634 310.403,257.683 			"/>
			<polygon style="fill:#BFBEED;" points="323.705,268.724 341.131,278.785 341.131,275.423 323.705,265.362 			"/>
		</g>
		<g>
			<polygon style="fill:#EDECF8;" points="288.834,281.703 305.176,291.139 305.176,287.777 288.834,278.342 			"/>
			<polygon style="fill:#EDECF8;" points="321.422,300.518 329.895,305.409 329.895,302.048 321.422,297.156 			"/>
			<polygon style="fill:#EDECF8;" points="305.733,291.46 316.682,297.781 316.682,294.419 305.733,288.098 			"/>
			<polygon style="fill:#FFC400;" points="317.291,298.133 320.671,300.084 320.672,296.723 317.291,294.771 			"/>
			<polygon style="fill:#EDECF8;" points="330.593,305.813 348.019,315.874 348.019,312.511 330.593,302.451 			"/>
		</g>
		<g>
			<polygon style="fill:#EDECF8;" points="343.193,275.245 357.831,283.696 357.831,280.334 343.193,271.883 			"/>
			<polygon style="fill:#EDECF8;" points="325.969,265.301 341.999,274.556 341.999,271.194 325.969,261.939 			"/>
			<polygon style="fill:#EDECF8;" points="290.537,244.845 306.568,254.1 306.568,250.738 290.537,241.483 			"/>
			<polygon style="fill:#FFC400;" points="313.626,258.176 325.175,264.843 325.175,261.48 313.626,254.813 			"/>
			<polygon style="fill:#EDECF8;" points="307.296,254.521 312.998,257.813 312.999,254.451 307.296,251.159 			"/>
			<polygon style="fill:#EDECF8;" points="290.537,287.333 306.568,296.589 306.568,293.226 290.537,283.971 			"/>
			<polygon style="fill:#FFC400;" points="313.626,300.664 325.175,307.331 325.175,303.969 313.626,297.301 			"/>
			<polygon style="fill:#EDECF8;" points="307.296,297.009 312.998,300.301 312.999,296.939 307.296,293.647 			"/>
		</g>
		<g>
			<polygon style="fill:#EDECF8;" points="343.193,303.515 357.831,311.966 357.831,308.604 343.193,300.153 			"/>
			<polygon style="fill:#EDECF8;" points="288.322,268.697 302.21,276.715 302.21,280.077 288.322,272.059 			"/>
			<polygon style="fill:#EDECF8;" points="315.176,287.341 325.499,293.3 325.499,289.938 315.176,283.978 			"/>
			<polygon style="fill:#FFC400;" points="310.403,284.585 313.783,286.536 313.783,283.174 310.403,281.222 			"/>
			<polygon style="fill:#BFBEED;" points="326.336,293.784 342.367,303.039 342.367,299.676 326.336,290.421 			"/>
			<polygon style="fill:#EDECF8;" points="303.594,280.876 309.297,284.168 309.297,280.806 303.594,277.514 			"/>
		</g>
		<g>
			<polygon style="fill:#EDECF8;" points="343.193,289.424 357.831,297.875 357.831,294.513 343.193,286.062 			"/>
			<polygon style="fill:#EDECF8;" points="324.073,278.386 342.367,288.948 342.367,285.586 324.073,275.023 			"/>
			<polygon style="fill:#EDECF8;" points="290.537,259.047 306.568,268.302 306.568,264.94 290.537,255.685 			"/>
			<polygon style="fill:#EDECF8;" points="313.626,272.378 323.227,277.92 323.227,274.558 313.626,269.016 			"/>
			<polygon style="fill:#EDECF8;" points="307.296,268.723 312.998,272.015 312.998,268.653 307.296,265.361 			"/>
		</g>
		<g>
			<polygon style="fill:#FFC400;" points="337.437,281.383 353.468,290.638 353.468,287.276 337.437,278.021 			"/>
			<polygon style="fill:#BFBEED;" points="309.144,265.048 325.175,274.303 325.175,270.941 309.144,261.686 			"/>
			<polygon style="fill:#BFBEED;" points="326.043,274.805 336.366,280.764 336.366,277.402 326.043,271.442 			"/>
			<polygon style="fill:#FFC400;" points="299.176,259.293 304.877,262.585 304.877,259.223 299.176,255.931 			"/>
		</g>
		<g>
			<polygon style="fill:#EDECF8;" points="337.437,305.034 353.468,314.289 353.468,310.927 337.437,301.672 			"/>
			<polygon style="fill:#EDECF8;" points="307.296,287.633 322.594,296.464 322.594,293.102 307.296,284.271 			"/>
			<polygon style="fill:#FFC400;" points="323.226,296.829 336.917,304.733 336.917,301.371 323.227,293.467 			"/>
			<polygon style="fill:#BFBEED;" points="299.175,282.944 306.862,287.382 306.862,284.019 299.175,279.582 			"/>
		</g>
		<g>
			<polygon style="fill:#EDECF8;" points="314.458,277.576 330.73,286.971 330.73,283.609 314.458,274.215 			"/>
			<polygon style="fill:#BFBEED;" points="331.357,287.333 345.921,295.741 345.922,292.379 331.357,283.971 			"/>
			<polygon style="fill:#EDECF8;" points="307.506,273.563 313.208,276.855 313.208,273.493 307.506,270.201 			"/>
		</g>
		<g>
			<polygon style="fill:#BFBEED;" points="338.09,295.951 348.342,301.869 348.342,298.507 338.09,292.589 			"/>
			<polygon style="fill:#BFBEED;" points="309.469,279.426 337.321,295.506 337.321,292.144 309.469,276.064 			"/>
			<polygon style="fill:#BFBEED;" points="300.069,274 308.773,279.025 308.773,275.663 300.069,270.638 			"/>
		</g>
	</g>
</g>
<g style="opacity:0.3;">
	<polygon style="fill:#50298A;" points="135.048,314.059 110.119,300.094 92.66,314.606 	"/>
</g>
<g>
	<g style="enable-background:new    ;">
		<g>
			<polygon style="fill:#F4F4FB;" points="75.136,327.461 75.49,328.879 168.931,382.254 168.578,380.836 			"/>
		</g>
		<g>
			<polygon style="fill:#BFBEED;" points="168.578,380.836 168.931,382.254 205.463,352.899 205.083,349.394 			"/>
		</g>
		<g>
			<polygon style="fill:#E3E2F2;" points="75.136,327.461 168.578,380.836 205.083,349.394 111.64,296.018 			"/>
		</g>
	</g>
</g>
<g>
	<g style="enable-background:new    ;">
		<g>
			<polygon style="fill:#CCCBF6;" points="108.698,294.388 108.934,295.334 113.922,298.182 113.686,297.237 			"/>
		</g>
		<g>
			<polygon style="fill:#BFBEED;" points="113.686,297.237 113.922,298.182 116.57,295.901 116.334,294.956 			"/>
		</g>
		<g>
			<polygon style="fill:#F4F4FB;" points="108.698,294.388 113.686,297.237 116.334,294.956 111.347,292.107 			"/>
		</g>
	</g>
	<g style="enable-background:new    ;">
		<g>
			<polygon style="fill:#CCCBF6;" points="102.026,300.573 102.261,301.518 107.249,304.366 107.013,303.422 			"/>
		</g>
		<g>
			<polygon style="fill:#BFBEED;" points="107.013,303.422 107.249,304.366 112.102,300.187 111.866,299.242 			"/>
		</g>
		<g>
			<polygon style="fill:#F4F4FB;" points="102.026,300.573 107.013,303.422 111.866,299.242 106.879,296.392 			"/>
		</g>
	</g>
	<g style="enable-background:new    ;">
		<g>
			<polygon style="fill:#CCCBF6;" points="114.988,297.981 115.224,298.926 120.212,301.775 119.976,300.83 			"/>
		</g>
		<g>
			<polygon style="fill:#BFBEED;" points="119.976,300.83 120.212,301.775 122.861,299.494 122.625,298.549 			"/>
		</g>
		<g>
			<polygon style="fill:#F4F4FB;" points="114.988,297.981 119.976,300.83 122.625,298.549 117.637,295.7 			"/>
		</g>
	</g>
	<g style="enable-background:new    ;">
		<g>
			<polygon style="fill:#CCCBF6;" points="108.071,304.025 108.307,304.971 113.294,307.82 113.059,306.875 			"/>
		</g>
		<g>
			<polygon style="fill:#BFBEED;" points="113.059,306.875 113.294,307.82 118.147,303.64 117.911,302.695 			"/>
		</g>
		<g>
			<polygon style="fill:#F4F4FB;" points="108.071,304.025 113.059,306.875 117.911,302.695 112.924,299.845 			"/>
		</g>
	</g>
	<g style="enable-background:new    ;">
		<g>
			<polygon style="fill:#CCCBF6;" points="121.279,301.573 121.514,302.519 126.502,305.368 126.267,304.423 			"/>
		</g>
		<g>
			<polygon style="fill:#BFBEED;" points="126.267,304.423 126.502,305.368 129.15,303.088 128.915,302.142 			"/>
		</g>
		<g>
			<polygon style="fill:#F4F4FB;" points="121.279,301.573 126.267,304.423 128.915,302.142 123.927,299.293 			"/>
		</g>
	</g>
	<g style="enable-background:new    ;">
		<g>
			<polygon style="fill:#CCCBF6;" points="114.116,307.479 114.351,308.424 119.339,311.273 119.104,310.328 			"/>
		</g>
		<g>
			<polygon style="fill:#BFBEED;" points="119.104,310.328 119.339,311.273 124.192,307.093 123.956,306.148 			"/>
		</g>
		<g>
			<polygon style="fill:#F4F4FB;" points="114.116,307.479 119.104,310.328 123.956,306.148 118.969,303.299 			"/>
		</g>
	</g>
	<g style="enable-background:new    ;">
		<g>
			<polygon style="fill:#CCCBF6;" points="127.569,305.167 127.805,306.112 132.792,308.961 132.556,308.016 			"/>
		</g>
		<g>
			<polygon style="fill:#BFBEED;" points="132.556,308.016 132.792,308.961 135.44,306.681 135.205,305.735 			"/>
		</g>
		<g>
			<polygon style="fill:#F4F4FB;" points="127.569,305.167 132.556,308.016 135.205,305.735 130.217,302.886 			"/>
		</g>
	</g>
	<g style="enable-background:new    ;">
		<g>
			<polygon style="fill:#CCCBF6;" points="120.161,310.931 120.397,311.878 125.385,314.726 125.148,313.78 			"/>
		</g>
		<g>
			<polygon style="fill:#BFBEED;" points="125.148,313.78 125.385,314.726 130.237,310.546 130.001,309.601 			"/>
		</g>
		<g>
			<polygon style="fill:#F4F4FB;" points="120.161,310.931 125.148,313.78 130.001,309.601 125.014,306.752 			"/>
		</g>
	</g>
	<g style="enable-background:new    ;">
		<g>
			<polygon style="fill:#CCCBF6;" points="126.206,314.384 126.442,315.33 131.429,318.179 131.194,317.234 			"/>
		</g>
		<g>
			<polygon style="fill:#BFBEED;" points="131.194,317.234 131.429,318.179 136.283,313.999 136.046,313.054 			"/>
		</g>
		<g>
			<polygon style="fill:#F4F4FB;" points="126.206,314.384 131.194,317.234 136.046,313.054 131.059,310.205 			"/>
		</g>
	</g>
	<g style="enable-background:new    ;">
		<g>
			<polygon style="fill:#CCCBF6;" points="137.003,310.556 137.238,311.501 142.226,314.35 141.99,313.404 			"/>
		</g>
		<g>
			<polygon style="fill:#BFBEED;" points="141.99,313.404 142.226,314.35 144.874,312.069 144.637,311.123 			"/>
		</g>
		<g>
			<polygon style="fill:#F4F4FB;" points="137.003,310.556 141.99,313.404 144.637,311.123 139.65,308.274 			"/>
		</g>
	</g>
	<g style="enable-background:new    ;">
		<g>
			<polygon style="fill:#CCCBF6;" points="132.252,317.838 132.487,318.783 137.475,321.632 137.239,320.687 			"/>
		</g>
		<g>
			<polygon style="fill:#BFBEED;" points="137.239,320.687 137.475,321.632 142.328,317.452 142.092,316.507 			"/>
		</g>
		<g>
			<polygon style="fill:#F4F4FB;" points="132.252,317.838 137.239,320.687 142.092,316.507 137.104,313.658 			"/>
		</g>
	</g>
	<g style="enable-background:new    ;">
		<g>
			<polygon style="fill:#CCCBF6;" points="143.292,314.148 143.528,315.094 148.516,317.943 148.28,316.997 			"/>
		</g>
		<g>
			<polygon style="fill:#BFBEED;" points="148.28,316.997 148.516,317.943 151.164,315.661 150.928,314.717 			"/>
		</g>
		<g>
			<polygon style="fill:#F4F4FB;" points="143.292,314.148 148.28,316.997 150.928,314.717 145.941,311.867 			"/>
		</g>
	</g>
	<g style="enable-background:new    ;">
		<g>
			<polygon style="fill:#CCCBF6;" points="138.297,321.291 138.533,322.236 143.52,325.086 143.284,324.14 			"/>
		</g>
		<g>
			<polygon style="fill:#BFBEED;" points="143.284,324.14 143.52,325.086 148.373,320.905 148.137,319.96 			"/>
		</g>
		<g>
			<polygon style="fill:#F4F4FB;" points="138.297,321.291 143.284,324.14 148.137,319.96 143.15,317.111 			"/>
		</g>
	</g>
	<g style="enable-background:new    ;">
		<g>
			<polygon style="fill:#CCCBF6;" points="149.583,317.741 149.818,318.687 154.806,321.536 154.57,320.59 			"/>
		</g>
		<g>
			<polygon style="fill:#BFBEED;" points="154.57,320.59 154.806,321.536 157.454,319.255 157.218,318.31 			"/>
		</g>
		<g>
			<polygon style="fill:#F4F4FB;" points="149.583,317.741 154.57,320.59 157.218,318.31 152.231,315.461 			"/>
		</g>
	</g>
	<g style="enable-background:new    ;">
		<g>
			<polygon style="fill:#CCCBF6;" points="144.342,324.744 144.577,325.689 149.565,328.539 149.33,327.593 			"/>
		</g>
		<g>
			<polygon style="fill:#BFBEED;" points="149.33,327.593 149.565,328.539 154.418,324.359 154.182,323.413 			"/>
		</g>
		<g>
			<polygon style="fill:#F4F4FB;" points="144.342,324.744 149.33,327.593 154.182,323.413 149.194,320.564 			"/>
		</g>
	</g>
	<g style="enable-background:new    ;">
		<g>
			<polygon style="fill:#CCCBF6;" points="155.873,321.334 156.109,322.28 161.096,325.129 160.861,324.183 			"/>
		</g>
		<g>
			<polygon style="fill:#BFBEED;" points="160.861,324.183 161.096,325.129 163.744,322.848 163.508,321.903 			"/>
		</g>
		<g>
			<polygon style="fill:#F4F4FB;" points="155.873,321.334 160.861,324.183 163.508,321.903 158.521,319.054 			"/>
		</g>
	</g>
	<g style="enable-background:new    ;">
		<g>
			<polygon style="fill:#CCCBF6;" points="150.387,328.197 150.623,329.142 155.61,331.991 155.374,331.046 			"/>
		</g>
		<g>
			<polygon style="fill:#BFBEED;" points="155.374,331.046 155.61,331.991 160.463,327.812 160.228,326.866 			"/>
		</g>
		<g>
			<polygon style="fill:#F4F4FB;" points="150.387,328.197 155.374,331.046 160.228,326.866 155.24,324.017 			"/>
		</g>
	</g>
	<g style="enable-background:new    ;">
		<g>
			<polygon style="fill:#CCCBF6;" points="165.306,326.723 165.542,327.668 170.529,330.517 170.294,329.572 			"/>
		</g>
		<g>
			<polygon style="fill:#BFBEED;" points="170.294,329.572 170.529,330.517 173.178,328.237 172.941,327.291 			"/>
		</g>
		<g>
			<polygon style="fill:#F4F4FB;" points="165.306,326.723 170.294,329.572 172.941,327.291 167.954,324.443 			"/>
		</g>
	</g>
	<g style="enable-background:new    ;">
		<g>
			<polygon style="fill:#CCCBF6;" points="156.432,331.65 156.668,332.595 161.655,335.444 161.419,334.5 			"/>
		</g>
		<g>
			<polygon style="fill:#BFBEED;" points="161.419,334.5 161.655,335.444 166.508,331.264 166.272,330.319 			"/>
		</g>
		<g>
			<polygon style="fill:#F4F4FB;" points="156.432,331.65 161.419,334.5 166.272,330.319 161.285,327.47 			"/>
		</g>
	</g>
	<g style="enable-background:new    ;">
		<g>
			<polygon style="fill:#CCCBF6;" points="171.596,330.316 171.832,331.262 176.82,334.11 176.583,333.166 			"/>
		</g>
		<g>
			<polygon style="fill:#BFBEED;" points="176.583,333.166 176.82,334.11 179.467,331.83 179.232,330.884 			"/>
		</g>
		<g>
			<polygon style="fill:#F4F4FB;" points="171.596,330.316 176.583,333.166 179.232,330.884 174.245,328.035 			"/>
		</g>
	</g>
	<g style="enable-background:new    ;">
		<g>
			<polygon style="fill:#CCCBF6;" points="162.477,335.104 162.713,336.048 167.701,338.898 167.465,337.952 			"/>
		</g>
		<g>
			<polygon style="fill:#BFBEED;" points="167.465,337.952 167.701,338.898 172.553,334.718 172.317,333.772 			"/>
		</g>
		<g>
			<polygon style="fill:#F4F4FB;" points="162.477,335.104 167.465,337.952 172.317,333.772 167.33,330.923 			"/>
		</g>
	</g>
	<g style="enable-background:new    ;">
		<g>
			<polygon style="fill:#CCCBF6;" points="177.887,333.909 178.122,334.855 183.11,337.703 182.874,336.758 			"/>
		</g>
		<g>
			<polygon style="fill:#BFBEED;" points="182.874,336.758 183.11,337.703 185.758,335.423 185.522,334.478 			"/>
		</g>
		<g>
			<polygon style="fill:#F4F4FB;" points="177.887,333.909 182.874,336.758 185.522,334.478 180.535,331.629 			"/>
		</g>
	</g>
	<g style="enable-background:new    ;">
		<g>
			<polygon style="fill:#CCCBF6;" points="168.523,338.557 168.758,339.502 173.746,342.351 173.51,341.405 			"/>
		</g>
		<g>
			<polygon style="fill:#BFBEED;" points="173.51,341.405 173.746,342.351 178.598,338.171 178.363,337.226 			"/>
		</g>
		<g>
			<polygon style="fill:#F4F4FB;" points="168.523,338.557 173.51,341.405 178.363,337.226 173.375,334.376 			"/>
		</g>
	</g>
	<g style="enable-background:new    ;">
		<g>
			<polygon style="fill:#CCCBF6;" points="184.177,337.502 184.413,338.447 189.4,341.296 189.164,340.351 			"/>
		</g>
		<g>
			<polygon style="fill:#BFBEED;" points="189.164,340.351 189.4,341.296 192.048,339.016 191.813,338.071 			"/>
		</g>
		<g>
			<polygon style="fill:#F4F4FB;" points="184.177,337.502 189.164,340.351 191.813,338.071 186.825,335.222 			"/>
		</g>
	</g>
	<g style="enable-background:new    ;">
		<g>
			<polygon style="fill:#CCCBF6;" points="174.567,342.01 174.803,342.955 179.791,345.804 179.555,344.858 			"/>
		</g>
		<g>
			<polygon style="fill:#BFBEED;" points="179.555,344.858 179.791,345.804 184.644,341.625 184.408,340.678 			"/>
		</g>
		<g>
			<polygon style="fill:#F4F4FB;" points="174.567,342.01 179.555,344.858 184.408,340.678 179.42,337.83 			"/>
		</g>
	</g>
	<g style="enable-background:new    ;">
		<g>
			<polygon style="fill:#CCCBF6;" points="180.612,345.463 180.848,346.408 185.836,349.257 185.6,348.311 			"/>
		</g>
		<g>
			<polygon style="fill:#BFBEED;" points="185.6,348.311 185.836,349.257 190.688,345.077 190.453,344.132 			"/>
		</g>
		<g>
			<polygon style="fill:#F4F4FB;" points="180.612,345.463 185.6,348.311 190.453,344.132 185.466,341.283 			"/>
		</g>
	</g>
	<g style="enable-background:new    ;">
		<g>
			<polygon style="fill:#CCCBF6;" points="193.636,342.905 193.872,343.851 198.859,346.699 198.623,345.755 			"/>
		</g>
		<g>
			<polygon style="fill:#BFBEED;" points="198.623,345.755 198.859,346.699 201.507,344.419 201.271,343.474 			"/>
		</g>
		<g>
			<polygon style="fill:#F4F4FB;" points="193.636,342.905 198.623,345.755 201.271,343.474 196.284,340.624 			"/>
		</g>
	</g>
	<g style="enable-background:new    ;">
		<g>
			<polygon style="fill:#CCCBF6;" points="186.658,348.915 186.893,349.861 191.881,352.71 191.645,351.765 			"/>
		</g>
		<g>
			<polygon style="fill:#BFBEED;" points="191.645,351.765 191.881,352.71 196.734,348.53 196.498,347.585 			"/>
		</g>
		<g>
			<polygon style="fill:#F4F4FB;" points="186.658,348.915 191.645,351.765 196.498,347.585 191.51,344.736 			"/>
		</g>
	</g>
	<g style="enable-background:new    ;">
		<g>
			<polygon style="fill:#CCCBF6;" points="101.223,308.408 101.459,309.354 104.481,311.08 104.245,310.134 			"/>
		</g>
		<g>
			<polygon style="fill:#BFBEED;" points="104.245,310.134 104.481,311.08 109.335,306.901 109.098,305.955 			"/>
		</g>
		<g>
			<polygon style="fill:#CCCBF6;" points="90.446,310.546 90.682,311.491 95.669,314.341 95.434,313.395 			"/>
		</g>
		<g>
			<polygon style="fill:#F4F4FB;" points="90.446,310.546 95.434,313.395 101.223,308.408 104.245,310.134 109.098,305.955 
				101.089,301.379 99.39,302.842 96.236,305.559 			"/>
		</g>
		<g>
			<polygon style="fill:#BFBEED;" points="95.434,313.395 95.669,314.341 101.459,309.354 101.223,308.408 			"/>
		</g>
		<g>
			<polygon style="fill:#BFBEED;" points="110.291,313.588 110.527,314.533 115.379,310.353 115.144,309.408 			"/>
		</g>
		<g>
			<polygon style="fill:#CCCBF6;" points="105.304,310.739 105.539,311.684 110.527,314.533 110.291,313.588 			"/>
		</g>
		<g>
			<polygon style="fill:#F4F4FB;" points="105.304,310.739 110.291,313.588 115.144,309.408 110.156,306.559 			"/>
		</g>
		<g>
			<polygon style="fill:#CCCBF6;" points="96.491,313.999 96.727,314.945 101.714,317.794 101.479,316.848 			"/>
		</g>
		<g>
			<polygon style="fill:#F4F4FB;" points="96.491,313.999 101.479,316.848 106.331,312.668 101.344,309.82 			"/>
		</g>
		<g>
			<polygon style="fill:#BFBEED;" points="101.479,316.848 101.714,317.794 106.567,313.614 106.331,312.668 			"/>
		</g>
	</g>
	<g style="enable-background:new    ;">
		<g>
			<polygon style="fill:#CCCBF6;" points="111.349,314.192 111.584,315.137 116.572,317.987 116.337,317.041 			"/>
		</g>
		<g>
			<polygon style="fill:#BFBEED;" points="116.337,317.041 116.572,317.987 121.425,313.806 121.189,312.861 			"/>
		</g>
		<g>
			<polygon style="fill:#F4F4FB;" points="111.349,314.192 116.337,317.041 121.189,312.861 116.201,310.012 			"/>
		</g>
	</g>
	<g style="enable-background:new    ;">
		<g>
			<polygon style="fill:#CCCBF6;" points="117.393,317.645 117.63,318.591 122.617,321.44 122.381,320.494 			"/>
		</g>
		<g>
			<polygon style="fill:#BFBEED;" points="122.381,320.494 122.617,321.44 127.47,317.26 127.234,316.314 			"/>
		</g>
		<g>
			<polygon style="fill:#F4F4FB;" points="117.393,317.645 122.381,320.494 127.234,316.314 122.247,313.466 			"/>
		</g>
	</g>
	<g style="enable-background:new    ;">
		<g>
			<polygon style="fill:#CCCBF6;" points="123.438,321.099 123.674,322.044 128.662,324.893 128.427,323.947 			"/>
		</g>
		<g>
			<polygon style="fill:#BFBEED;" points="128.427,323.947 128.662,324.893 133.515,320.713 133.279,319.767 			"/>
		</g>
		<g>
			<polygon style="fill:#F4F4FB;" points="123.438,321.099 128.427,323.947 133.279,319.767 128.292,316.919 			"/>
		</g>
	</g>
	<g style="enable-background:new    ;">
		<g>
			<polygon style="fill:#CCCBF6;" points="129.484,324.551 129.72,325.497 134.707,328.345 134.471,327.4 			"/>
		</g>
		<g>
			<polygon style="fill:#BFBEED;" points="134.471,327.4 134.707,328.345 139.56,324.166 139.325,323.22 			"/>
		</g>
		<g>
			<polygon style="fill:#F4F4FB;" points="129.484,324.551 134.471,327.4 139.325,323.22 134.337,320.372 			"/>
		</g>
	</g>
	<g style="enable-background:new    ;">
		<g>
			<polygon style="fill:#CCCBF6;" points="102.536,317.452 102.772,318.398 107.76,321.246 107.523,320.301 			"/>
		</g>
		<g>
			<polygon style="fill:#BFBEED;" points="107.523,320.301 107.76,321.246 112.613,317.067 112.377,316.122 			"/>
		</g>
		<g>
			<polygon style="fill:#F4F4FB;" points="102.536,317.452 107.523,320.301 112.377,316.122 107.39,313.273 			"/>
		</g>
	</g>
	<g style="enable-background:new    ;">
		<g>
			<polygon style="fill:#CCCBF6;" points="108.581,320.905 108.817,321.851 113.805,324.699 113.569,323.754 			"/>
		</g>
		<g>
			<polygon style="fill:#BFBEED;" points="113.569,323.754 113.805,324.699 118.657,320.52 118.422,319.575 			"/>
		</g>
		<g>
			<polygon style="fill:#F4F4FB;" points="108.581,320.905 113.569,323.754 118.422,319.575 113.434,316.726 			"/>
		</g>
	</g>
	<g style="enable-background:new    ;">
		<g>
			<polygon style="fill:#CCCBF6;" points="114.627,324.359 114.863,325.304 119.85,328.153 119.614,327.208 			"/>
		</g>
		<g>
			<polygon style="fill:#BFBEED;" points="119.614,327.208 119.85,328.153 124.702,323.973 124.467,323.028 			"/>
		</g>
		<g>
			<polygon style="fill:#F4F4FB;" points="114.627,324.359 119.614,327.208 124.467,323.028 119.479,320.178 			"/>
		</g>
	</g>
	<g style="enable-background:new    ;">
		<g>
			<polygon style="fill:#CCCBF6;" points="120.672,327.812 120.907,328.757 125.895,331.606 125.659,330.66 			"/>
		</g>
		<g>
			<polygon style="fill:#BFBEED;" points="125.659,330.66 125.895,331.606 130.748,327.426 130.512,326.481 			"/>
		</g>
		<g>
			<polygon style="fill:#F4F4FB;" points="120.672,327.812 125.659,330.66 130.512,326.481 125.524,323.632 			"/>
		</g>
	</g>
	<g style="enable-background:new    ;">
		<g>
			<polygon style="fill:#CCCBF6;" points="135.53,328.005 135.765,328.95 140.753,331.799 140.517,330.854 			"/>
		</g>
		<g>
			<polygon style="fill:#BFBEED;" points="140.517,330.854 140.753,331.799 145.605,327.618 145.37,326.673 			"/>
		</g>
		<g>
			<polygon style="fill:#F4F4FB;" points="135.53,328.005 140.517,330.854 145.37,326.673 140.382,323.825 			"/>
		</g>
	</g>
	<g style="enable-background:new    ;">
		<g>
			<polygon style="fill:#CCCBF6;" points="126.716,331.264 126.952,332.21 131.94,335.059 131.704,334.113 			"/>
		</g>
		<g>
			<polygon style="fill:#BFBEED;" points="131.704,334.113 131.94,335.059 136.793,330.879 136.557,329.934 			"/>
		</g>
		<g>
			<polygon style="fill:#F4F4FB;" points="126.716,331.264 131.704,334.113 136.557,329.934 131.57,327.085 			"/>
		</g>
	</g>
	<g style="enable-background:new    ;">
		<g>
			<polygon style="fill:#CCCBF6;" points="141.575,331.457 141.81,332.403 146.797,335.252 146.562,334.306 			"/>
		</g>
		<g>
			<polygon style="fill:#BFBEED;" points="146.562,334.306 146.797,335.252 151.651,331.072 151.415,330.126 			"/>
		</g>
		<g>
			<polygon style="fill:#F4F4FB;" points="141.575,331.457 146.562,334.306 151.415,330.126 146.427,327.278 			"/>
		</g>
	</g>
	<g style="enable-background:new    ;">
		<g>
			<polygon style="fill:#CCCBF6;" points="132.762,334.718 132.998,335.663 137.985,338.512 137.749,337.566 			"/>
		</g>
		<g>
			<polygon style="fill:#BFBEED;" points="137.749,337.566 137.985,338.512 142.838,334.332 142.602,333.387 			"/>
		</g>
		<g>
			<polygon style="fill:#F4F4FB;" points="132.762,334.718 137.749,337.566 142.602,333.387 137.615,330.538 			"/>
		</g>
	</g>
	<g style="enable-background:new    ;">
		<g>
			<polygon style="fill:#CCCBF6;" points="147.62,334.911 147.855,335.856 152.843,338.705 152.607,337.759 			"/>
		</g>
		<g>
			<polygon style="fill:#BFBEED;" points="152.607,337.759 152.843,338.705 157.695,334.525 157.46,333.58 			"/>
		</g>
		<g>
			<polygon style="fill:#F4F4FB;" points="147.62,334.911 152.607,337.759 157.46,333.58 152.473,330.731 			"/>
		</g>
	</g>
	<g style="enable-background:new    ;">
		<g>
			<polygon style="fill:#CCCBF6;" points="138.807,338.171 139.043,339.116 144.031,341.965 143.795,341.02 			"/>
		</g>
		<g>
			<polygon style="fill:#BFBEED;" points="143.795,341.02 144.031,341.965 148.883,337.786 148.647,336.84 			"/>
		</g>
		<g>
			<polygon style="fill:#F4F4FB;" points="138.807,338.171 143.795,341.02 148.647,336.84 143.66,333.991 			"/>
		</g>
	</g>
	<g style="enable-background:new    ;">
		<g>
			<polygon style="fill:#CCCBF6;" points="153.665,338.364 153.9,339.309 158.888,342.158 158.652,341.213 			"/>
		</g>
		<g>
			<polygon style="fill:#BFBEED;" points="158.652,341.213 158.888,342.158 163.741,337.978 163.505,337.033 			"/>
		</g>
		<g>
			<polygon style="fill:#F4F4FB;" points="153.665,338.364 158.652,341.213 163.505,337.033 158.517,334.184 			"/>
		</g>
	</g>
	<g style="enable-background:new    ;">
		<g>
			<polygon style="fill:#CCCBF6;" points="144.852,341.624 145.088,342.569 150.076,345.418 149.84,344.473 			"/>
		</g>
		<g>
			<polygon style="fill:#BFBEED;" points="149.84,344.473 150.076,345.418 154.928,341.239 154.693,340.293 			"/>
		</g>
		<g>
			<polygon style="fill:#F4F4FB;" points="144.852,341.624 149.84,344.473 154.693,340.293 149.705,337.444 			"/>
		</g>
	</g>
	<g style="enable-background:new    ;">
		<g>
			<polygon style="fill:#CCCBF6;" points="159.71,341.817 159.946,342.762 164.933,345.611 164.697,344.666 			"/>
		</g>
		<g>
			<polygon style="fill:#BFBEED;" points="164.697,344.666 164.933,345.611 169.786,341.431 169.55,340.486 			"/>
		</g>
		<g>
			<polygon style="fill:#F4F4FB;" points="159.71,341.817 164.697,344.666 169.55,340.486 164.563,337.637 			"/>
		</g>
	</g>
	<g style="enable-background:new    ;">
		<g>
			<polygon style="fill:#CCCBF6;" points="150.898,345.077 151.133,346.023 156.121,348.871 155.885,347.926 			"/>
		</g>
		<g>
			<polygon style="fill:#BFBEED;" points="155.885,347.926 156.121,348.871 160.974,344.692 160.737,343.746 			"/>
		</g>
		<g>
			<polygon style="fill:#F4F4FB;" points="150.898,345.077 155.885,347.926 160.737,343.746 155.75,340.897 			"/>
		</g>
	</g>
	<g style="enable-background:new    ;">
		<g>
			<polygon style="fill:#CCCBF6;" points="165.755,345.27 165.991,346.216 170.978,349.064 170.743,348.119 			"/>
		</g>
		<g>
			<polygon style="fill:#BFBEED;" points="170.743,348.119 170.978,349.064 175.831,344.884 175.595,343.939 			"/>
		</g>
		<g>
			<polygon style="fill:#F4F4FB;" points="165.755,345.27 170.743,348.119 175.595,343.939 170.608,341.09 			"/>
		</g>
	</g>
	<g style="enable-background:new    ;">
		<g>
			<polygon style="fill:#CCCBF6;" points="156.943,348.53 157.178,349.475 162.165,352.324 161.93,351.379 			"/>
		</g>
		<g>
			<polygon style="fill:#BFBEED;" points="161.93,351.379 162.165,352.324 167.019,348.145 166.783,347.199 			"/>
		</g>
		<g>
			<polygon style="fill:#F4F4FB;" points="156.943,348.53 161.93,351.379 166.783,347.199 161.795,344.35 			"/>
		</g>
	</g>
	<g style="enable-background:new    ;">
		<g>
			<polygon style="fill:#CCCBF6;" points="171.8,348.723 172.036,349.668 186.091,357.697 185.855,356.751 			"/>
		</g>
		<g>
			<polygon style="fill:#BFBEED;" points="185.855,356.751 186.091,357.697 190.944,353.517 190.708,352.572 			"/>
		</g>
		<g>
			<polygon style="fill:#F4F4FB;" points="171.8,348.723 185.855,356.751 190.708,352.572 176.653,344.543 			"/>
		</g>
	</g>
	<g style="enable-background:new    ;">
		<g>
			<polygon style="fill:#CCCBF6;" points="162.988,351.984 163.224,352.929 168.211,355.777 167.975,354.832 			"/>
		</g>
		<g>
			<polygon style="fill:#BFBEED;" points="167.975,354.832 168.211,355.777 173.063,351.598 172.828,350.652 			"/>
		</g>
		<g>
			<polygon style="fill:#F4F4FB;" points="162.988,351.984 167.975,354.832 172.828,350.652 167.841,347.803 			"/>
		</g>
	</g>
	<g style="enable-background:new    ;">
		<g>
			<polygon style="fill:#CCCBF6;" points="84.656,315.533 84.892,316.478 92.902,321.054 92.667,320.108 			"/>
		</g>
		<g>
			<polygon style="fill:#BFBEED;" points="92.667,320.108 92.902,321.054 97.755,316.874 97.519,315.929 			"/>
		</g>
		<g>
			<polygon style="fill:#F4F4FB;" points="84.656,315.533 92.667,320.108 97.519,315.929 89.509,311.353 			"/>
		</g>
	</g>
	<g style="enable-background:new    ;">
		<g>
			<polygon style="fill:#CCCBF6;" points="93.724,320.712 93.96,321.658 98.947,324.507 98.711,323.562 			"/>
		</g>
		<g>
			<polygon style="fill:#BFBEED;" points="98.711,323.562 98.947,324.507 103.8,320.327 103.564,319.382 			"/>
		</g>
		<g>
			<polygon style="fill:#F4F4FB;" points="93.724,320.712 98.711,323.562 103.564,319.382 98.576,316.533 			"/>
		</g>
	</g>
	<g style="enable-background:new    ;">
		<g>
			<polygon style="fill:#CCCBF6;" points="99.769,324.166 100.005,325.111 104.992,327.96 104.756,327.015 			"/>
		</g>
		<g>
			<polygon style="fill:#BFBEED;" points="104.756,327.015 104.992,327.96 109.845,323.78 109.609,322.835 			"/>
		</g>
		<g>
			<polygon style="fill:#F4F4FB;" points="99.769,324.166 104.756,327.015 109.609,322.835 104.622,319.986 			"/>
		</g>
	</g>
	<g style="enable-background:new    ;">
		<g>
			<polygon style="fill:#CCCBF6;" points="105.814,327.619 106.05,328.565 111.037,331.414 110.802,330.468 			"/>
		</g>
		<g>
			<polygon style="fill:#BFBEED;" points="110.802,330.468 111.037,331.414 115.891,327.233 115.654,326.288 			"/>
		</g>
		<g>
			<polygon style="fill:#F4F4FB;" points="105.814,327.619 110.802,330.468 115.654,326.288 110.667,323.439 			"/>
		</g>
	</g>
	<g style="enable-background:new    ;">
		<g>
			<polygon style="fill:#CCCBF6;" points="111.859,331.073 112.095,332.018 117.083,334.866 116.847,333.921 			"/>
		</g>
		<g>
			<polygon style="fill:#BFBEED;" points="116.847,333.921 117.083,334.866 121.935,330.686 121.699,329.741 			"/>
		</g>
		<g>
			<polygon style="fill:#F4F4FB;" points="111.859,331.073 116.847,333.921 121.699,329.741 116.712,326.892 			"/>
		</g>
	</g>
	<g style="enable-background:new    ;">
		<g>
			<polygon style="fill:#CCCBF6;" points="117.904,334.525 118.14,335.471 123.128,338.319 122.892,337.374 			"/>
		</g>
		<g>
			<polygon style="fill:#BFBEED;" points="122.892,337.374 123.128,338.319 127.981,334.14 127.744,333.194 			"/>
		</g>
		<g>
			<polygon style="fill:#F4F4FB;" points="117.904,334.525 122.892,337.374 127.744,333.194 122.757,330.345 			"/>
		</g>
	</g>
	<g style="enable-background:new    ;">
		<g>
			<polygon style="fill:#CCCBF6;" points="123.95,337.978 124.186,338.924 129.173,341.772 128.937,340.827 			"/>
		</g>
		<g>
			<polygon style="fill:#BFBEED;" points="128.937,340.827 129.173,341.772 134.025,337.592 133.79,336.647 			"/>
		</g>
		<g>
			<polygon style="fill:#F4F4FB;" points="123.95,337.978 128.937,340.827 133.79,336.647 128.802,333.798 			"/>
		</g>
	</g>
	<g style="enable-background:new    ;">
		<g>
			<polygon style="fill:#CCCBF6;" points="129.995,341.431 130.23,342.377 135.218,345.225 134.982,344.28 			"/>
		</g>
		<g>
			<polygon style="fill:#BFBEED;" points="134.982,344.28 135.218,345.225 140.07,341.046 139.835,340.1 			"/>
		</g>
		<g>
			<polygon style="fill:#F4F4FB;" points="129.995,341.431 134.982,344.28 139.835,340.1 134.847,337.251 			"/>
		</g>
	</g>
	<g style="enable-background:new    ;">
		<g>
			<polygon style="fill:#CCCBF6;" points="136.04,344.884 136.276,345.829 141.263,348.679 141.027,347.734 			"/>
		</g>
		<g>
			<polygon style="fill:#BFBEED;" points="141.027,347.734 141.263,348.679 146.116,344.499 145.88,343.554 			"/>
		</g>
		<g>
			<polygon style="fill:#F4F4FB;" points="136.04,344.884 141.027,347.734 145.88,343.554 140.892,340.704 			"/>
		</g>
	</g>
	<g style="enable-background:new    ;">
		<g>
			<polygon style="fill:#CCCBF6;" points="142.085,348.338 142.321,349.283 147.308,352.132 147.073,351.187 			"/>
		</g>
		<g>
			<polygon style="fill:#BFBEED;" points="147.073,351.187 147.308,352.132 152.161,347.952 151.925,347.007 			"/>
		</g>
		<g>
			<polygon style="fill:#F4F4FB;" points="142.085,348.338 147.073,351.187 151.925,347.007 146.938,344.158 			"/>
		</g>
	</g>
	<g style="enable-background:new    ;">
		<g>
			<polygon style="fill:#CCCBF6;" points="148.13,351.79 148.366,352.736 153.354,355.585 153.118,354.639 			"/>
		</g>
		<g>
			<polygon style="fill:#BFBEED;" points="153.118,354.639 153.354,355.585 158.206,351.405 157.971,350.46 			"/>
		</g>
		<g>
			<polygon style="fill:#F4F4FB;" points="148.13,351.79 153.118,354.639 157.971,350.46 152.983,347.611 			"/>
		</g>
	</g>
	<g style="enable-background:new    ;">
		<g>
			<polygon style="fill:#CCCBF6;" points="154.175,355.243 154.411,356.189 159.399,359.038 159.162,358.093 			"/>
		</g>
		<g>
			<polygon style="fill:#BFBEED;" points="159.162,358.093 159.399,359.038 164.251,354.858 164.016,353.913 			"/>
		</g>
		<g>
			<polygon style="fill:#F4F4FB;" points="154.175,355.243 159.162,358.093 164.016,353.913 159.028,351.064 			"/>
		</g>
	</g>
	<g style="enable-background:new    ;">
		<g>
			<polygon style="fill:#CCCBF6;" points="78.866,320.52 79.102,321.465 90.134,327.768 89.899,326.822 			"/>
		</g>
		<g>
			<polygon style="fill:#BFBEED;" points="89.899,326.822 90.134,327.768 94.988,323.587 94.752,322.643 			"/>
		</g>
		<g>
			<polygon style="fill:#F4F4FB;" points="78.866,320.52 89.899,326.822 94.752,322.643 83.719,316.34 			"/>
		</g>
	</g>
	<g style="enable-background:new    ;">
		<g>
			<polygon style="fill:#CCCBF6;" points="90.956,327.426 91.192,328.372 96.18,331.221 95.944,330.275 			"/>
		</g>
		<g>
			<polygon style="fill:#BFBEED;" points="95.944,330.275 96.18,331.221 101.032,327.041 100.797,326.096 			"/>
		</g>
		<g>
			<polygon style="fill:#F4F4FB;" points="90.956,327.426 95.944,330.275 100.797,326.096 95.81,323.247 			"/>
		</g>
	</g>
	<g style="enable-background:new    ;">
		<g>
			<polygon style="fill:#CCCBF6;" points="97.001,330.879 97.237,331.825 102.225,334.674 101.989,333.728 			"/>
		</g>
		<g>
			<polygon style="fill:#BFBEED;" points="101.989,333.728 102.225,334.674 107.078,330.494 106.842,329.549 			"/>
		</g>
		<g>
			<polygon style="fill:#F4F4FB;" points="97.001,330.879 101.989,333.728 106.842,329.549 101.855,326.699 			"/>
		</g>
	</g>
	<g style="enable-background:new    ;">
		<g>
			<polygon style="fill:#CCCBF6;" points="103.047,334.332 103.283,335.278 144.541,358.845 144.305,357.9 			"/>
		</g>
		<g>
			<polygon style="fill:#BFBEED;" points="144.305,357.9 144.541,358.845 149.394,354.665 149.158,353.72 			"/>
		</g>
		<g>
			<polygon style="fill:#F4F4FB;" points="103.047,334.332 144.305,357.9 149.158,353.72 107.899,330.152 			"/>
		</g>
	</g>
	<g style="enable-background:new    ;">
		<g>
			<polygon style="fill:#CCCBF6;" points="145.363,358.504 145.598,359.449 150.587,362.298 150.35,361.353 			"/>
		</g>
		<g>
			<polygon style="fill:#BFBEED;" points="150.35,361.353 150.587,362.298 155.439,358.118 155.203,357.173 			"/>
		</g>
		<g>
			<polygon style="fill:#F4F4FB;" points="145.363,358.504 150.35,361.353 155.203,357.173 150.216,354.325 			"/>
		</g>
	</g>
	<g style="enable-background:new    ;">
		<g>
			<polygon style="fill:#CCCBF6;" points="169.033,355.436 169.269,356.382 180.301,362.684 180.066,361.738 			"/>
		</g>
		<g>
			<polygon style="fill:#BFBEED;" points="180.066,361.738 180.301,362.684 185.154,358.504 184.919,357.559 			"/>
		</g>
		<g>
			<polygon style="fill:#F4F4FB;" points="169.033,355.436 180.066,361.738 184.919,357.559 173.886,351.256 			"/>
		</g>
	</g>
	<g style="enable-background:new    ;">
		<g>
			<polygon style="fill:#CCCBF6;" points="160.22,358.696 160.456,359.642 165.443,362.491 165.208,361.546 			"/>
		</g>
		<g>
			<polygon style="fill:#BFBEED;" points="165.208,361.546 165.443,362.491 170.296,358.311 170.061,357.366 			"/>
		</g>
		<g>
			<polygon style="fill:#F4F4FB;" points="160.22,358.696 165.208,361.546 170.061,357.366 165.073,354.517 			"/>
		</g>
	</g>
	<g style="enable-background:new    ;">
		<g>
			<polygon style="fill:#CCCBF6;" points="151.408,361.957 151.644,362.903 156.631,365.751 156.396,364.806 			"/>
		</g>
		<g>
			<polygon style="fill:#BFBEED;" points="156.396,364.806 156.631,365.751 161.484,361.572 161.248,360.626 			"/>
		</g>
		<g>
			<polygon style="fill:#F4F4FB;" points="151.408,361.957 156.396,364.806 161.248,360.626 156.261,357.778 			"/>
		</g>
	</g>
	<g style="enable-background:new    ;">
		<g>
			<polygon style="fill:#CCCBF6;" points="166.266,362.15 166.501,363.095 174.512,367.671 174.275,366.725 			"/>
		</g>
		<g>
			<polygon style="fill:#BFBEED;" points="174.275,366.725 174.512,367.671 179.364,363.491 179.128,362.545 			"/>
		</g>
		<g>
			<polygon style="fill:#F4F4FB;" points="166.266,362.15 174.275,366.725 179.128,362.545 171.118,357.97 			"/>
		</g>
	</g>
	<g style="enable-background:new    ;">
		<g>
			<polygon style="fill:#CCCBF6;" points="157.453,365.41 157.689,366.356 168.722,372.658 168.485,371.712 			"/>
		</g>
		<g>
			<polygon style="fill:#BFBEED;" points="168.485,371.712 168.722,372.658 173.574,368.478 173.339,367.532 			"/>
		</g>
		<g>
			<polygon style="fill:#F4F4FB;" points="157.453,365.41 168.485,371.712 173.339,367.532 162.306,361.23 			"/>
		</g>
	</g>
</g>
<g>
	<g>
		<polygon style="fill:#EDECF8;" points="121.064,270.921 118.979,270.723 119.258,270.56 121.343,270.759 		"/>
	</g>
	<g style="enable-background:new    ;">
		<path style="fill:#EDECF8;" d="M121.343,270.759l-2.085-0.199c0.573-0.333,1.178-0.639,1.813-0.919l1.786,0.35
			C122.327,270.225,121.821,270.481,121.343,270.759L121.343,270.759z"/>
		<path style="fill:#EDECF8;" d="M122.857,269.991l-1.786-0.35c4.473-1.975,10.356-2.621,15.856-1.681
			c24.828,4.236,46.063,11.449,62.945,21.195l-2.065,0.199c-16.523-9.54-38.011-16.538-61.699-20.768
			C131.51,267.801,126.594,268.341,122.857,269.991L122.857,269.991z"/>
	</g>
	<g>
		<path style="fill:#BFBEED;" d="M237.032,327.778l-0.012,4.372c-0.007,2.686-1.817,5.31-5.179,7.264l0.012-4.372
			C235.215,333.088,237.025,330.464,237.032,327.778L237.032,327.778z"/>
	</g>
	<g>
		<path style="fill:#EDECF8;" d="M197.807,289.355l2.065-0.199c7.599,4.387,14.315,9.288,20.079,14.661l-2.522,0.029
			C211.798,298.53,205.245,293.649,197.807,289.355L197.807,289.355z"/>
		<path style="fill:#EDECF8;" d="M217.429,303.846l2.522-0.029c6.794,6.333,12.264,13.324,16.294,20.903
			c1.932,3.652,0.249,7.625-4.393,10.322l-2.078-2.205c3.875-2.251,5.284-5.574,3.669-8.626
			C229.424,316.983,224.067,310.112,217.429,303.846L217.429,303.846z"/>
	</g>
	<g>
		<polygon style="fill:#BFBEED;" points="231.852,335.042 231.84,339.414 231.45,339.642 231.462,335.269 		"/>
	</g>
	<g>
		<polygon style="fill:#EDECF8;" points="229.774,332.837 231.852,335.042 231.462,335.269 229.383,333.064 		"/>
	</g>
	<g>
		<path style="fill:#F4F4FB;" d="M197.807,289.355c16.204,9.355,28.208,21.497,35.636,34.856c1.615,3.052,0.206,6.375-3.669,8.626
			l-0.391,0.227c-6.031,3.51-15.458,3.217-21.066-0.019c-1.332-0.769-2.451-1.707-3.259-2.805
			c-7.535-10.642-18.128-19.385-31.228-26.949c-13.359-7.713-28.844-13.913-47.694-18.259c-1.945-0.466-3.602-1.121-4.961-1.905
			c-5.604-3.237-6.16-8.697-0.111-12.207l0.279-0.162c3.851-2.238,9.515-3.069,14.765-2.172
			C159.796,272.817,181.284,279.815,197.807,289.355z"/>
	</g>
	<g>
		<path style="fill:#BFBEED;" d="M231.462,335.269l-0.012,4.373c-7.237,4.206-18.515,3.849-25.216-0.019
			c-1.594-0.92-2.93-2.041-3.889-3.344c-7.46-10.136-17.77-19.003-30.598-26.409c-13.081-7.552-28.782-13.585-46.74-17.89
			c-2.309-0.554-4.288-1.335-5.915-2.274c-3.452-1.993-5.304-4.694-5.296-7.419l0.013-4.373c-0.008,2.726,1.845,5.427,5.296,7.419
			c1.626,0.939,3.606,1.72,5.915,2.274c17.959,4.305,33.66,10.338,46.74,17.89c12.828,7.406,23.138,16.273,30.598,26.409
			c0.96,1.304,2.295,2.424,3.89,3.344C212.947,339.119,224.225,339.475,231.462,335.269L231.462,335.269z"/>
	</g>
	<g style="enable-background:new    ;">
		<path style="fill:#EDECF8;" d="M229.383,333.064l2.079,2.204c-1.419,0.824-2.992,1.473-4.656,1.956l-1.305-2.528
			C226.889,334.294,228.201,333.752,229.383,333.064L229.383,333.064z"/>
		<path style="fill:#EDECF8;" d="M225.5,334.696l1.305,2.528c-6.606,1.912-14.636,1.187-20.03-1.681l1.985-2.252
			C213.274,335.69,219.987,336.293,225.5,334.696L225.5,334.696z"/>
		<path style="fill:#EDECF8;" d="M208.761,333.291l-1.985,2.252c-0.179-0.095-0.356-0.193-0.53-0.293
			c-1.595-0.92-2.93-2.04-3.89-3.344c-7.459-10.136-17.769-19.002-30.598-26.409c-1.49-0.861-3.015-1.701-4.573-2.522l1.993-2.26
			c1.579,0.839,3.129,1.698,4.651,2.577c13.101,7.564,23.693,16.307,31.228,26.949c0.808,1.098,1.927,2.036,3.259,2.805
			C208.462,333.129,208.61,333.211,208.761,333.291L208.761,333.291z"/>
		<path style="fill:#EDECF8;" d="M169.179,300.715l-1.993,2.26c-12.115-6.383-26.255-11.553-42.167-15.368
			c-2.058-0.494-3.854-1.168-5.372-1.973l1.982-2.254c1.269,0.674,2.774,1.238,4.508,1.654
			C142.838,288.884,156.898,294.19,169.179,300.715L169.179,300.715z"/>
		<path style="fill:#EDECF8;" d="M121.629,283.379l-1.982,2.254c-0.185-0.098-0.366-0.199-0.543-0.301
			c-6.697-3.866-7.373-10.398-0.125-14.61l2.084,0.199c-6.049,3.51-5.492,8.969,0.111,12.207
			C121.323,283.213,121.474,283.297,121.629,283.379L121.629,283.379z"/>
	</g>
</g>
<g>
	<g style="enable-background:new    ;">
		<g>
			<polygon style="fill:#262028;" points="205.599,302.053 210.951,298.931 197.599,223.221 192.243,226.338 			"/>
		</g>
		<g>
			<polygon style="fill:#021B74;" points="192.243,226.338 197.599,223.221 159.558,201.357 154.206,204.479 			"/>
		</g>
		<g>
			<polygon style="fill:#35353F;" points="154.206,204.479 167.559,280.19 205.599,302.053 192.243,226.338 			"/>
		</g>
	</g>
</g>
<g>
	<g style="enable-background:new    ;">
		<g style="enable-background:new    ;">
			<defs>
				<path id="SVGID_00000096749259357576038540000000850113377592759173_" style="enable-background:new    ;" d="M91.486,45.61
					l7.119-3.127c1.71-0.751,3.834-0.58,6.047,0.697l-7.119,3.127C95.32,45.03,93.197,44.859,91.486,45.61z"/>
			</defs>
			<clipPath id="SVGID_00000075863573242146375190000008184897195199185590_">
				<use xlink:href="#SVGID_00000096749259357576038540000000850113377592759173_"  style="overflow:visible;"/>
			</clipPath>
			<g style="clip-path:url(#SVGID_00000075863573242146375190000008184897195199185590_);enable-background:new    ;">
				<path style="fill:#EDECF8;" d="M91.486,45.61l7.119-3.127c1.71-0.751,3.834-0.58,6.047,0.698l-7.119,3.127
					C95.32,45.03,93.197,44.859,91.486,45.61L91.486,45.61z"/>
			</g>
		</g>
		<g>
			<defs>
				<path id="SVGID_00000102503054687163452820000013282332656508395939_" d="M303.713,327.218l-7.119,3.128
					c2.023-0.889,3.467-3.072,3.792-6.246l7.119-3.127C307.18,324.147,305.737,326.329,303.713,327.218z"/>
			</defs>
			<use xlink:href="#SVGID_00000102503054687163452820000013282332656508395939_"  style="overflow:visible;fill:#D3D3F5;"/>
			<clipPath id="SVGID_00000062193730950677876900000014868389860770547383_">
				<use xlink:href="#SVGID_00000102503054687163452820000013282332656508395939_"  style="overflow:visible;"/>
			</clipPath>
			<g style="clip-path:url(#SVGID_00000062193730950677876900000014868389860770547383_);enable-background:new    ;">
				<path style="fill:#D3D3F5;" d="M300.387,324.1l7.119-3.127c-0.326,3.174-1.769,5.357-3.792,6.245l-7.119,3.128
					C298.618,329.457,300.061,327.274,300.387,324.1L300.387,324.1z"/>
			</g>
		</g>
		<g>
			<polygon style="fill:#EDECF8;" points="97.533,46.307 104.652,43.18 314.318,164.303 307.199,167.43 			"/>
		</g>
		<g>
			<polygon style="fill:#D3D3F5;" points="314.864,183.083 321.983,179.956 307.506,320.973 300.387,324.1 			"/>
		</g>
		<g style="enable-background:new    ;">
			<defs>
				<path id="SVGID_00000087406258752482469670000014494428496968400259_" style="enable-background:new    ;" d="M307.199,167.43
					l7.119-3.128c4.836,2.792,8.266,9.802,7.665,15.653l-7.119,3.127C315.465,177.232,312.035,170.222,307.199,167.43z"/>
			</defs>
			<clipPath id="SVGID_00000107573945066766243790000003989674093293442224_">
				<use xlink:href="#SVGID_00000087406258752482469670000014494428496968400259_"  style="overflow:visible;"/>
			</clipPath>
			<g style="clip-path:url(#SVGID_00000107573945066766243790000003989674093293442224_);enable-background:new    ;">
				<path style="fill:#EDECF8;" d="M307.199,167.43l7.119-3.128c4.836,2.792,8.266,9.802,7.665,15.653l-7.119,3.127
					C315.465,177.232,312.035,170.222,307.199,167.43L307.199,167.43z"/>
			</g>
		</g>
		<g>
			<path style="fill:#EDECF8;" d="M307.199,167.43c4.836,2.792,8.266,9.802,7.665,15.652L300.387,324.1
				c-0.601,5.856-5.005,8.337-9.841,5.545L80.88,208.522c-4.831-2.789-8.266-9.797-7.665-15.652L87.692,51.853
				c0.6-5.85,5.01-8.335,9.841-5.546L307.199,167.43z"/>
			<path style="fill:#FE4340;" d="M294.416,328.077c-0.756,0-1.625-0.27-2.513-0.783L82.237,206.172
				c-3.919-2.263-6.813-8.227-6.321-13.025L90.393,52.13c0.102-0.998,0.642-4.252,3.275-4.252c0.756,0,1.623,0.27,2.508,0.781
				l209.666,121.122c3.919,2.263,6.814,8.227,6.321,13.024l-14.477,141.018C297.585,324.821,297.046,328.077,294.416,328.077z"/>
		</g>
	</g>
</g>
<g>
	<polygon style="fill:#FFC400;" points="113.986,195.406 290.84,297.51 290.843,148.465 113.988,46.361 	"/>
	<polygon style="fill:#FFE561;" points="113.988,46.361 290.843,148.465 202.416,19.907 	"/>
	<polygon style="fill:#FFB700;" points="113.986,195.836 290.84,297.94 204.023,169.139 	"/>
	<polygon style="fill:#FFDE38;" points="113.986,195.406 290.84,297.51 202.414,171.936 	"/>
	<polygon style="fill:#FFB700;" points="290.845,148.891 264.166,155.974 202.415,172.363 147.439,94.293 113.984,46.787 
		147.439,66.102 181.509,85.769 203.065,98.213 207.221,100.612 228.769,113.055 264.166,133.486 	"/>
	<g>
		<polygon style="fill:#EDECF8;" points="264.166,79.997 264.166,155.545 202.415,171.934 147.439,93.864 147.439,12.604 		"/>
		<g>
			<path style="fill:#E5322B;" d="M225.349,133.448c1.165,3.892,4.369,7.261,7.157,7.526c2.788,0.264,4.104-2.675,2.939-6.567
				c-0.524-1.75-1.462-3.391-2.587-4.696c0.388-1.16,0.37-2.714-0.154-4.465c-1.165-3.891-4.369-7.261-7.157-7.526
				c-2.788-0.265-4.104,2.675-2.94,6.567c0.059,0.198,0.127,0.394,0.197,0.589l-17.661-1.677l-17.661-18.715
				c0.07-0.115,0.138-0.232,0.197-0.362c1.165-2.547-0.151-7.007-2.939-9.961c-2.788-2.954-5.992-3.285-7.157-0.738
				c-0.524,1.146-0.542,2.678-0.154,4.287c-1.125,0.005-2.063,0.563-2.587,1.708c-1.165,2.547,0.152,7.007,2.94,9.961
				c2.788,2.955,5.992,3.285,7.157,0.738c0.059-0.13,0.108-0.268,0.155-0.407l12.007,12.724l-9.772-0.929
				c-0.047-0.193-0.095-0.387-0.155-0.585c-1.164-3.892-4.369-7.261-7.157-7.526c-2.788-0.265-4.104,2.675-2.939,6.567
				c0.524,1.75,1.462,3.392,2.587,4.696c-0.388,1.16-0.37,2.714,0.154,4.465c1.165,3.891,4.369,7.261,7.157,7.526
				c2.788,0.265,4.104-2.675,2.94-6.567c-0.059-0.198-0.127-0.394-0.197-0.589l15.426,1.465l15.426,16.346
				c-0.07,0.115-0.138,0.232-0.197,0.362c-1.165,2.547,0.151,7.006,2.939,9.961c2.788,2.954,5.993,3.284,7.157,0.738
				c0.524-1.145,0.542-2.678,0.154-4.286c1.125-0.005,2.063-0.563,2.587-1.709c1.165-2.547-0.152-7.006-2.939-9.961
				c-2.788-2.954-5.992-3.285-7.157-0.738c-0.059,0.13-0.108,0.268-0.155,0.407l-9.772-10.355l12.008,1.14
				C225.241,133.056,225.289,133.25,225.349,133.448z"/>
			<g>
				<path style="fill:#E5322B;" d="M204.77,57.386c-14.148-7.935-25.555-0.158-25.555,16.231c0,1.749,0.131,3.542,0.386,5.361
					c0.29,2.126,0.958,4.288,1.907,6.362c2.074,4.491,5.457,8.542,9.174,10.686c0.887,0.51,1.608,1.767,1.608,2.795v3.454
					c0,2.513,1.555,5.65,3.708,7.232c2.61,1.898,4.86,0.834,4.86-2.1c0,2.715,1.924,6.055,4.288,7.417
					c2.355,1.362,4.28,0.246,4.28-2.469c0,2.935,2.249,6.599,4.86,7.707c2.153,0.914,3.708-0.44,3.708-2.953v-3.454
					c0-1.028,0.721-1.45,1.608-0.932c1.811,1.046,3.542,1.556,5.079,1.556c1.626,0,3.032-0.562,4.086-1.652
					c0.949-0.966,1.617-2.346,1.907-4.104c0.281-1.678,0.422-3.497,0.386-5.457C230.843,86.57,218.944,65.339,204.77,57.386z
					 M215.535,86.166c4.068,2.346,7.364,8.058,7.364,12.76s-3.296,6.608-7.364,4.253c-4.078-2.347-7.373-8.059-7.373-12.76
					S211.466,83.811,215.535,86.166z M194.761,74.171c4.068,2.346,7.364,8.058,7.364,12.759s-3.296,6.609-7.364,4.253
					c-4.077-2.346-7.373-8.058-7.373-12.759S190.684,71.815,194.761,74.171z M208.197,102.704c0.466,1.195-0.114,2.012-1.037,1.476
					l-4.034-2.32c-0.923-0.536-1.494-2.021-1.037-2.68l0.976-1.397l1.037-1.467c0.466-0.659,1.617,0.009,2.082,1.195l1.037,2.672
					L208.197,102.704z"/>
			</g>
		</g>
	</g>
</g>
<g>
	<g>
		<g style="enable-background:new    ;">
			<g style="enable-background:new    ;">
				<defs>
					<path id="SVGID_00000090291785803368420180000007455700576018837945_" style="enable-background:new    ;" d="M129.016,212.145
						l-2.912,1.692c1.052-0.611,1.704-1.912,1.709-3.761l2.912-1.692C130.72,210.233,130.068,211.534,129.016,212.145z"/>
				</defs>
				<use xlink:href="#SVGID_00000090291785803368420180000007455700576018837945_"  style="overflow:visible;fill:#DADAF9;"/>
				<clipPath id="SVGID_00000031192726831085416130000018405215539905123975_">
					<use xlink:href="#SVGID_00000090291785803368420180000007455700576018837945_"  style="overflow:visible;"/>
				</clipPath>
				<g style="clip-path:url(#SVGID_00000031192726831085416130000018405215539905123975_);enable-background:new    ;">
					<path style="fill:#DADAF9;" d="M127.814,210.076l2.912-1.692c-0.005,1.849-0.657,3.15-1.709,3.761l-2.912,1.692
						C127.156,213.226,127.808,211.926,127.814,210.076L127.814,210.076z"/>
				</g>
			</g>
			<g style="enable-background:new    ;">
				<defs>
					<path id="SVGID_00000056391328753068225910000003222932145041626542_" style="enable-background:new    ;" d="M60.522,81.605
						l2.912-1.692c1.066-0.62,2.543-0.532,4.171,0.408l-2.912,1.692C63.064,81.073,61.588,80.985,60.522,81.605z"/>
				</defs>
				<use xlink:href="#SVGID_00000056391328753068225910000003222932145041626542_"  style="overflow:visible;fill:#DADAF9;"/>
				<clipPath id="SVGID_00000076597639212829037450000015541123431853379998_">
					<use xlink:href="#SVGID_00000056391328753068225910000003222932145041626542_"  style="overflow:visible;"/>
				</clipPath>
				<g style="clip-path:url(#SVGID_00000076597639212829037450000015541123431853379998_);enable-background:new    ;">
					<path style="fill:#DADAF9;" d="M60.522,81.605l2.912-1.692c1.066-0.62,2.543-0.532,4.171,0.408l-2.912,1.692
						C63.064,81.073,61.588,80.985,60.522,81.605L60.522,81.605z"/>
				</g>
			</g>
			<g>
				<polygon style="fill:#DADAF9;" points="128.054,125.341 130.966,123.648 130.725,208.384 127.814,210.076 				"/>
			</g>
			<g>
				<polygon style="fill:#DADAF9;" points="64.692,82.013 67.604,80.32 125.123,113.529 122.211,115.221 				"/>
			</g>
			<g style="enable-background:new    ;">
				<defs>
					<path id="SVGID_00000131353214893125326710000001144406050669851327_" style="enable-background:new    ;" d="M122.211,115.221
						l2.912-1.692c3.24,1.87,5.853,6.397,5.843,10.12l-2.912,1.692C128.064,121.618,125.45,117.091,122.211,115.221z"/>
				</defs>
				<use xlink:href="#SVGID_00000131353214893125326710000001144406050669851327_"  style="overflow:visible;fill:#DADAF9;"/>
				<clipPath id="SVGID_00000011021313226889611160000006619948350300253364_">
					<use xlink:href="#SVGID_00000131353214893125326710000001144406050669851327_"  style="overflow:visible;"/>
				</clipPath>
				<g style="clip-path:url(#SVGID_00000011021313226889611160000006619948350300253364_);enable-background:new    ;">
					<path style="fill:#DADAF9;" d="M122.211,115.221l2.912-1.692c3.24,1.87,5.853,6.397,5.843,10.12l-2.912,1.692
						C128.064,121.618,125.45,117.091,122.211,115.221L122.211,115.221z"/>
				</g>
			</g>
			<g>
				<path style="fill:#19121B;" d="M128.054,125.341c0.011-3.722-2.603-8.25-5.843-10.12L64.692,82.013
					c-3.234-1.867-5.87-0.371-5.881,3.351l-0.018,6.354l69.242,39.978L128.054,125.341z"/>
				<path style="fill:#262028;" d="M58.794,91.718l-0.222,78.382c-0.01,3.723,2.608,8.253,5.843,10.12l57.519,33.208
					c3.239,1.87,5.87,0.371,5.88-3.351l0.223-78.38L58.794,91.718z"/>
			</g>
		</g>
	</g>
	<g style="opacity:0.9;">
		<g>
			<polygon style="fill:#EDECF8;" points="67.104,104.705 72.064,107.57 72.064,111.614 67.104,108.75 			"/>
			<polygon style="fill:#EDECF8;" points="91.608,122.897 101.8,128.781 101.8,124.737 91.608,118.853 			"/>
			<polygon style="fill:#FF6661;" points="72.734,112 85.905,119.605 85.905,115.56 72.734,107.956 			"/>
			<polygon style="fill:#5C4FAF;" points="86.639,120.028 90.705,122.376 90.705,118.331 86.639,115.984 			"/>
			<polygon style="fill:#FF6661;" points="102.64,129.266 123.603,141.369 123.603,137.324 102.64,125.222 			"/>
		</g>
		<g>
			<polygon style="fill:#EDECF8;" points="67.104,161.484 72.064,164.348 72.064,168.392 67.104,165.528 			"/>
			<polygon style="fill:#BFBEED;" points="91.608,179.675 101.8,185.559 101.8,181.515 91.608,175.631 			"/>
			<polygon style="fill:#EDECF8;" points="77.473,171.617 90.644,179.221 90.644,175.177 77.473,167.573 			"/>
			<polygon style="fill:#5C4FAF;" points="72.734,168.778 76.8,171.126 76.8,167.081 72.734,164.734 			"/>
			<polygon style="fill:#FF6661;" points="102.64,186.044 123.603,198.147 123.603,194.103 102.64,182 			"/>
		</g>
		<g>
			<polygon style="fill:#EDECF8;" points="67.104,166.874 72.064,169.739 72.064,173.783 67.104,170.919 			"/>
			<polygon style="fill:#EDECF8;" points="91.608,185.066 101.8,190.95 101.8,186.906 91.608,181.022 			"/>
			<polygon style="fill:#EDECF8;" points="72.734,174.169 85.905,181.773 85.905,177.73 72.734,170.125 			"/>
			<polygon style="fill:#5C4FAF;" points="86.639,182.197 90.705,184.545 90.705,180.5 86.639,178.153 			"/>
			<polygon style="fill:#FF6661;" points="102.64,191.435 123.603,203.538 123.603,199.494 102.64,187.391 			"/>
		</g>
		<g>
			<polygon style="fill:#EDECF8;" points="60.69,144.88 80.35,156.229 80.35,152.185 60.691,140.835 			"/>
			<polygon style="fill:#EDECF8;" points="99.893,167.513 110.086,173.397 110.086,169.353 99.893,163.468 			"/>
			<polygon style="fill:#EDECF8;" points="81.02,156.616 94.191,164.22 94.191,160.176 81.02,152.572 			"/>
			<polygon style="fill:#5C4FAF;" points="94.924,164.643 98.99,166.991 98.99,162.947 94.924,160.599 			"/>
		</g>
		<g>
			<polygon style="fill:#EDECF8;" points="105.363,125.148 124.647,136.282 124.647,132.237 105.363,121.104 			"/>
			<polygon style="fill:#EDECF8;" points="62.74,100.541 82.025,111.674 82.025,107.63 62.74,96.496 			"/>
			<polygon style="fill:#5C4FAF;" points="90.516,116.576 104.408,124.596 104.408,120.552 90.516,112.532 			"/>
			<polygon style="fill:#BFBEED;" points="82.901,112.18 89.76,116.14 89.761,112.096 82.901,108.136 			"/>
		</g>
		<g>
			<polygon style="fill:#EDECF8;" points="60.075,129.233 76.782,138.879 76.782,142.923 60.075,133.277 			"/>
			<polygon style="fill:#EDECF8;" points="92.38,151.66 104.798,158.83 104.798,154.786 92.38,147.616 			"/>
			<polygon style="fill:#5C4FAF;" points="86.638,148.346 90.704,150.693 90.704,146.649 86.638,144.301 			"/>
			<polygon style="fill:#FF6661;" points="105.805,159.411 125.089,170.545 125.089,166.5 105.805,155.367 			"/>
			<polygon style="fill:#BFBEED;" points="78.447,143.884 85.307,147.845 85.307,143.8 78.447,139.84 			"/>
			<polygon style="fill:#BFBEED;" points="60.075,168.846 76.782,178.492 76.782,182.537 60.075,172.891 			"/>
			<polygon style="fill:#BFBEED;" points="78.447,183.498 85.307,187.459 85.307,183.414 78.447,179.454 			"/>
		</g>
		<g>
			<polygon style="fill:#EDECF8;" points="103.082,140.889 125.089,153.594 125.089,149.55 103.082,136.844 			"/>
			<polygon style="fill:#EDECF8;" points="62.74,117.625 82.025,128.759 82.025,124.714 62.74,113.581 			"/>
			<polygon style="fill:#BFBEED;" points="90.516,133.661 102.064,140.328 102.064,136.284 90.516,129.617 			"/>
			<polygon style="fill:#EDECF8;" points="82.901,129.264 89.76,133.225 89.76,129.18 82.901,125.22 			"/>
		</g>
		<g>
			<polygon style="fill:#FF6661;" points="85.123,124.844 104.407,135.977 104.407,131.933 85.123,120.799 			"/>
			<polygon style="fill:#EDECF8;" points="105.452,136.58 117.871,143.749 117.871,139.706 105.452,132.536 			"/>
			<polygon style="fill:#5C4FAF;" points="73.131,117.92 79.991,121.881 79.991,117.836 73.131,113.876 			"/>
		</g>
		<g>
			<polygon style="fill:#EDECF8;" points="82.9,152.012 101.303,162.636 101.303,158.592 82.9,147.967 			"/>
			<polygon style="fill:#5C4FAF;" points="102.064,163.076 118.533,172.584 118.533,168.539 102.064,159.031 			"/>
			<polygon style="fill:#5C4FAF;" points="73.131,146.372 82.378,151.71 82.378,147.666 73.131,142.327 			"/>
		</g>
		<g>
			<polygon style="fill:#EDECF8;" points="91.516,139.915 111.091,151.216 111.091,147.172 91.516,135.871 			"/>
			<polygon style="fill:#BFBEED;" points="83.153,135.086 90.012,139.046 90.012,135.003 83.153,131.042 			"/>
		</g>
		<polygon style="fill:#EDECF8;" points="103.082,174.878 125.089,187.584 125.089,183.54 103.082,170.834 		"/>
		<polygon style="fill:#BFBEED;" points="90.516,167.651 102.064,174.318 102.064,170.274 90.516,163.606 		"/>
		<polygon style="fill:#EDECF8;" points="82.901,163.255 89.76,167.214 89.76,163.17 82.901,159.21 		"/>
		<g>
			<polygon style="fill:#EDECF8;" points="91.516,173.905 111.091,185.206 111.091,181.162 91.516,169.861 			"/>
			<polygon style="fill:#BFBEED;" points="83.153,169.077 90.012,173.036 90.012,168.992 83.153,165.032 			"/>
		</g>
		<g>
			<polygon style="fill:#EDECF8;" points="85.514,142.14 119.019,161.484 119.019,157.439 85.514,138.096 			"/>
			<polygon style="fill:#FF6661;" points="74.207,135.612 84.677,141.657 84.678,137.613 74.207,131.568 			"/>
		</g>
	</g>
</g>
<g>
	<g>
		<polygon style="fill:#FE4340;" points="304.638,35.029 335.105,108.394 274.171,73.214 		"/>
		<path style="fill:#F8F9F3;" d="M304.638,42.281l24.392,58.737l-48.784-28.166L304.638,42.281L304.638,42.281z M304.638,38.655
			l-27.432,34.377l54.861,31.672L304.638,38.655L304.638,38.655z"/>
	</g>
	<g>
		<path style="fill:#F8F9F3;" d="M306.236,81.142c0,1.319-0.37,2.124-1.108,2.416c-0.741,0.292-1.578,0.168-2.513-0.371
			c-0.934-0.539-1.77-1.383-2.511-2.529c-0.74-1.147-1.109-2.378-1.109-3.698c0-1.318,0.371-2.124,1.11-2.416
			c0.74-0.292,1.577-0.169,2.511,0.371c0.935,0.539,1.772,1.382,2.512,2.529C305.866,78.591,306.236,79.824,306.236,81.142z
			 M305.731,61.292c0,2.428-0.078,4.647-0.234,6.654c-0.156,2.008-0.363,4.016-0.623,6.025l-4.439-2.563
			c-0.259-2.308-0.474-4.56-0.642-6.755c-0.169-2.195-0.253-4.508-0.253-6.935v-8.048l6.191,3.574V61.292z"/>
	</g>
</g>
<g>
	<g>
		<polygon style="fill:#FE4340;" points="73.232,259.169 67.189,235.781 79.275,242.758 		"/>
		<g>
			<path style="fill:#FE4340;" d="M86.859,238.529c0,9.09-6.382,12.774-14.254,8.229c-7.872-4.544-14.253-15.598-14.253-24.687
				c0-9.09,6.382-12.774,14.253-8.23C80.477,218.386,86.859,229.439,86.859,238.529z"/>
			<g>
				<path style="fill:#F8F9F3;" d="M76.025,239.351c0,0.902-0.253,1.452-0.758,1.652c-0.506,0.2-1.079,0.116-1.718-0.253
					c-0.638-0.369-1.21-0.945-1.716-1.729c-0.506-0.783-0.758-1.625-0.758-2.528c0-0.901,0.253-1.452,0.759-1.652
					c0.506-0.2,1.078-0.115,1.716,0.253c0.639,0.369,1.211,0.945,1.718,1.729C75.772,237.607,76.025,238.45,76.025,239.351z
					 M75.679,225.781c0,1.66-0.054,3.177-0.16,4.549c-0.107,1.373-0.249,2.746-0.426,4.119l-3.034-1.752
					c-0.177-1.578-0.324-3.117-0.439-4.618c-0.116-1.501-0.173-3.082-0.173-4.741v-5.502l4.232,2.444V225.781z"/>
			</g>
		</g>
	</g>
	<g>
		<path style="fill:#231869;" d="M68.406,317.64c1.111,1.036,5.061-1.113,5.095-1.644c4.642-3.908,4.672,10.951,3.532,16.901
			c-0.609,3.208-0.283,6.508-0.594,9.754c-0.345,3.616-0.96,7.208-1.837,10.735c-0.188,0.762-0.405,1.549-0.921,2.141
			c-1.062,1.224-2.946,1.186-4.553,0.989c-1.394-0.171-2.958-0.499-3.688-1.697c-0.451-0.738-0.475-1.648-0.503-2.512
			c-0.175-5.159,0.07-10.432-1.451-15.442c-0.712-2.342-1.715-4.599-2.242-6.989c-0.647-2.94-0.541-5.977-0.164-8.945
			c0.24-1.892,0.055-6.13,2.403-6.561C66.025,313.902,67.666,316.949,68.406,317.64z"/>
		<g>
			<path style="fill:#DADAF9;" d="M73.296,266.276c0.329,1.466-0.837,2.492-1.645,3.457c-2.22,2.653-11.336,13.239-15.257,12.792
				c-1.397-0.159-2.485-1.005-3.065-2.346c-0.446-1.032,0.204-3.051,0.654-3.86c0.884-1.59,2.366-2.892,3.706-4.079
				c2.548-2.256,10.825-9.078,11.237-9.195C70.392,262.629,73.042,265.14,73.296,266.276z"/>
			<g>
				<path style="fill:#DADAF9;" d="M66.106,302.179c1.909,0.958,4.26,0.366,6.057-0.894c1.203-0.844,1.827-1.84,2.027-3.252
					c0.181-1.28-0.028-2.521-0.561-3.698c-0.618-1.363-1.568-2.545-2.507-3.71c-1.634-2.027-3.268-4.053-4.902-6.079
					c-1.551-1.923-2.944-3.96-4.426-5.936c-0.528-0.705-7.15-2.926-8.136-0.87c-0.434,0.903-0.615,1.646-0.324,2.568
					c0.707,2.238,8.546,15.359,9.365,17.203c0.578,1.301,1.144,2.645,2.113,3.687C65.208,301.625,65.643,301.947,66.106,302.179z"/>
			</g>
			<path style="fill:#262028;" d="M80.081,380.468c0.145-0.198,0.308-0.383,0.489-0.551c0.878-0.82,2.082-1.206,3.271-1.377
				c1.299-0.187,2.646-0.244,3.95-0.347c1.407-0.111,2.812-0.256,4.22-0.36c0.797-0.058,1.607-0.116,2.385,0.061
				c2.136,0.488,3.638,2.556,2.758,4.74c-0.321,0.798-1.052,1.375-1.839,1.745c-1.182,0.554-2.739,0.872-4.044,0.777
				c-1.399-0.102-2.737,0.035-4.021,0.63c-2.203,1.024-4.765,2.494-6.989,0.5c-0.84-0.754-1.101-2.118-1.061-3.199
				C79.235,382.155,79.529,381.22,80.081,380.468z"/>
			<path style="fill:#262028;" d="M58.572,378.38c0.097-0.35,0.22-0.702,0.361-1.052c1.319-3.269,5.812-5.034,8.628-6.753
				c0.682-0.416,1.376-0.837,2.15-1.035c2.123-0.542,4.404,0.611,4.619,2.956c0.078,0.857-0.308,1.704-0.839,2.393
				c-0.798,1.033-2.037,2.027-3.242,2.538c-1.291,0.548-2.419,1.281-3.289,2.398c-1.66,2.133-3.769,4.48-6.783,2.905
				C58.272,381.735,58.101,380.087,58.572,378.38z"/>
			<path style="fill:#3A2C99;" d="M80.737,321.787c-1.909-0.094-3.822,0.081-5.722,0.257c-2.457,0.227-4.915,0.455-7.372,0.682
				c-0.871,0.08-1.559-0.414-2.352-0.654c-0.75-0.227-1.222-0.458-1.858-0.965c-0.475-0.379-1.085-0.718-1.664-0.533
				c-0.626,0.2-0.916,0.913-1.051,1.555c-1.053,4.998,2.419,9.714,6.361,12.397c1.156,0.787,2.43,1.294,3.612,2.019
				c1.34,0.822,2.677,1.659,3.9,2.65c0.944,0.765,1.737,1.821,2.52,2.752c0.664,0.79,1.316,1.594,1.924,2.429
				c1.689,2.322,3.217,4.771,4.555,7.312c1.536,2.917,2.748,7.767,6.231,8.91c2.504,0.821,5.535-0.323,6.621-2.782
				c1.5-3.394-0.513-7.989-1.615-11.25c-1.317-3.897-2.943-7.681-4.624-11.433c-1.701-3.794-3.443-7.566-5.216-11.327
				c-0.27-0.572-0.408-1.186-0.942-1.525c-0.716-0.454-2.168-0.423-2.993-0.477C80.947,321.799,80.842,321.792,80.737,321.787z"/>
			<g>
				<g>
					<g>
						<g>
							<g>
								<path style="fill:#DADAF9;" d="M85.036,295.2c-0.187-2.226-0.541-4.6-2.622-5.799c-2.094-1.205-4.242-2.273-6.509-3.114
									c-4.187-1.553-10.062-2.631-12.963-2.225c-0.518,0.072-0.899,0.54-1.28,0.896c-3.751,3.492-1.39,10.394-1.061,14.719
									c0.315,4.135,0.429,8.286,0.343,12.432c-0.044,2.084-0.042,4.223-0.286,6.295c-0.298,2.522-1.27,5.134,0.668,7.31
									c1.248,1.4,3.168,1.967,5.005,2.344c3.419,0.702,6.978,0.946,10.438,0.402c2.959-0.466,6.825-1.36,8.129-4.37
									c0.591-1.365,0.275-2.52,0.185-3.921c-0.134-2.112-0.269-4.224-0.403-6.337c-0.118-1.863-0.383-3.768-0.162-5.612
									c0.441-3.679,1.024-7.655,0.656-11.356C85.121,296.333,85.084,295.771,85.036,295.2z"/>
							</g>
						</g>
					</g>
				</g>
			</g>
			<g>
				<g>
					<path style="fill:#F9D5C3;" d="M76.944,282.922c0.16-1.138,1.035-0.88,0.585-1.908c-0.381-0.872-0.957-1.673-1.724-2.247
						c-0.768-0.575-1.735-0.911-2.698-0.85c-0.332,0.021-0.553,0.209-0.881,0.213c-0.91,0.01-1.825-0.154-2.731-0.017
						c-0.901,0.136-1.736,0.207-1.728,1.21c0.011,1.337,0.083,2.623-0.34,3.94c-0.226,0.705-0.574,1.384-0.63,2.12
						c-0.111,1.448,2.671,1.659,4.004,2.281c1.64,0.765,6.31-0.876,6.223-1.55C76.892,285.093,76.799,283.949,76.944,282.922z"/>
					<g>
						<g>
							<path style="fill:#F9D5C3;" d="M80.703,268.352c0.553,0.652,0.987,1.387,1.125,2.252c0.309,1.927-0.465,3.916-0.024,5.827
								c0.427,1.852-0.348,6.07-4.056,7.18c-1.877,0.561-5.593-0.049-6.791-0.603c-1.608-0.742-2.678-2.262-3.637-3.733
								C59.46,267.204,75.387,262.087,80.703,268.352z"/>
						</g>
						<path style="fill:#B98C74;" d="M64.945,266.092c0.374-0.384,0.833-0.715,1.394-0.978c0.17-0.08,0.352-0.154,0.471-0.297
							c0.089-0.107,0.134-0.241,0.192-0.366c0.26-0.562,0.785-0.961,1.33-1.265c2.062-1.15,4.575-1.224,6.923-0.911
							c0.793,0.105,1.588,0.254,2.326,0.559c0.842,0.348,1.588,0.89,2.263,1.494c0.956,0.854,1.866,1.859,2.368,3.044
							c0.234,0.551,0.283,1.136,0.45,1.696c0.15,0.503-0.024,1.1-0.449,1.425c-0.183,0.14-0.398,0.23-0.588,0.358
							c-0.784,0.529-0.922,1.737-1.255,2.557c-0.21,0.518-0.634,0.803-0.751,1.359c-0.122,0.578-0.106,1.181-0.288,1.748
							c-0.086,0.269-0.266,0.561-0.551,0.58c-0.118,0.008-0.234-0.034-0.336-0.095c-0.333-0.199-0.507-0.578-0.62-0.945
							c-0.113-0.367-0.187-0.755-0.397-1.079c-0.031-0.048-0.068-0.095-0.121-0.116c-0.044-0.016-0.093-0.011-0.14-0.001
							c-0.398,0.079-0.658,0.374-0.846,0.707c-0.228,0.404-0.347,0.855-0.466,1.301c-0.185,0.701-0.204,1.294-0.288,1.99
							c-0.085,0.706-0.282,1.461-0.78,1.998c-1.117,1.205-3.288,1.155-4.757,0.847c-0.532-0.111-1.067-0.229-1.559-0.458
							c-1.136-0.527-1.916-1.573-2.645-2.578c-0.667-0.92-1.342-1.859-1.697-2.933c-0.201-0.605-0.296-1.239-0.39-1.869
							C63.359,271.31,63.06,268.031,64.945,266.092z"/>
						<path style="fill:#F9D5C3;" d="M76.542,273.707c-1.462-0.301-2.093,1.45-1.278,2.983c0.238,0.447,0.71,0.879,1.05,1.257
							c2.329,2.58,3.335,0.273,2.602-0.597C77.214,275.328,78.382,274.085,76.542,273.707z"/>
						<path style="fill:#FFBFA2;" d="M76.599,276.507c-0.148-0.176-1.691-1.384-0.451-1.892c0.343-0.141,0.658,0.181,0.659,0.519
							c0.001,0.175-0.078,0.343-0.077,0.518c0.002,0.103,0.032,0.205,0.073,0.3c0.115,0.26,0.593,0.56,0.443,0.897
							C77.114,277.146,76.684,276.608,76.599,276.507z"/>
					</g>
				</g>
				<path style="fill:#EDECF8;" d="M77.024,286.114c0.32,0.831,0.385,1.153,0.204,1.562c-0.491,1.105-3.399,1.19-4.174,1.166
					c-0.905-0.028-6.175-1.046-6.587-3.139c-0.039-0.199,0.56-1.48,0.67-1.641c0.808,0.817,3.588,2.202,5.574,2.445
					C74.148,286.683,75.499,286.533,77.024,286.114z"/>
			</g>
			<path style="fill:#3A2C99;" d="M87.022,381.687c-0.147,0.287-0.294,0.574-0.439,0.861c-0.319,0.628-0.663,1.285-1.255,1.667
				c-0.695,0.449-1.589,0.426-2.407,0.305c-0.68-0.101-1.377-0.271-1.916-0.699c-0.743-0.592-1.06-1.595-1.044-2.546
				c0.017-1.042,0.367-2.089,0.499-3.11c0.172-1.328,0.528-2.653,0.806-3.964c0.571-2.696,1.156-5.389,1.731-8.085
				c0.8-3.75,2.018-7.289,2.71-11.052c0.229-1.244,0.48-2.535,1.357-3.573c1.204-1.425,3.555-2.126,5.627-1.717
				c2.071,0.409,3.744,1.88,4.137,3.577c0.241,1.041,0.141,2.066-0.078,3.11c-1.01,4.815-2.343,9.671-4.314,14.281
				C90.839,374.481,88.875,378.079,87.022,381.687z"/>
			<g>
				<path style="fill:#DADAF9;" d="M81.163,300.116c-2.118-0.281-3.729-2.092-4.507-4.144c-0.521-1.374-0.477-2.549,0.151-3.829
					c0.569-1.16,1.44-2.07,2.543-2.743c1.277-0.781,2.727-1.224,4.159-1.66c2.49-0.758,4.98-1.515,7.471-2.273
					c2.363-0.719,4.66-1.621,6.997-2.423c0.833-0.286,7.558,1.598,7.218,3.854c-0.149,0.991-0.416,1.707-1.175,2.307
					c-1.843,1.453-15.701,7.9-17.415,8.966c-1.209,0.752-2.433,1.545-3.82,1.862C82.218,300.162,81.676,300.184,81.163,300.116z"/>
			</g>
			<path style="fill:#F9D4C3;" d="M80.917,265.481c-0.022,0.097,0.059,0.197,0.138,0.266c0.153,0.133,0.361,0.255,0.479,0.422
				c0.089,0.127,0.067,0.31-0.119,0.32c-0.068,0.004-0.135-0.018-0.199-0.041c-0.161-0.056-0.32-0.118-0.479-0.18
				c-0.368-0.142-0.735-0.285-1.103-0.427c-0.309-0.12-0.595-0.246-0.923-0.288c-0.189-0.023-0.441-0.035-0.487,0.206
				c-0.043,0.225,0.166,0.429,0.337,0.535c0.23,0.142,0.434,0.27,0.678,0.38c0.129,0.058,0.619,0.277,0.644,0.435
				c0.027,0.176-0.354-0.035-0.444-0.066c-0.19-0.067-0.379-0.134-0.569-0.201c-0.189-0.067-0.379-0.134-0.568-0.2
				c-0.149-0.053-0.379-0.189-0.535-0.189c-0.33-0.117-0.659-0.246-0.991-0.355c-0.22-0.072-0.508-0.056-0.661,0.15
				c-0.436,0.584,0.388,0.83,0.749,0.96c0.412,0.148,0.819,0.31,1.226,0.472c0.183,0.073,0.373,0.13,0.557,0.199
				c0.074,0.028,0.346,0.098,0.365,0.173c0.014,0.056-0.024,0.116-0.077,0.142c-0.052,0.025-0.114,0.021-0.17,0.005
				c-0.302-0.087-0.606-0.228-0.904-0.333c-0.38-0.134-0.797-0.399-1.215-0.322c-0.275,0.051-0.525,0.339-0.425,0.6
				c0.055,0.143,0.193,0.233,0.322,0.315c0.432,0.271,0.86,0.589,1.305,0.831c0.455,0.247,0.95,0.421,1.404,0.68
				c0.752,0.43,2.071,1.53,1.616,2.557c-0.69-0.131-1.217-0.525-1.85-0.922c-0.514-0.323-1.062-0.595-1.679-0.421
				c-0.296,0.083-0.779,0.174-0.847,0.536c-0.063,0.339,0.201,0.612,0.492,0.736c0.289,0.123,0.615,0.141,0.892,0.293
				c0.264,0.144,0.492,0.319,0.715,0.524c0.395,0.364,0.762,0.792,1.19,1.113c0.434,0.325,0.947,0.524,1.475,0.633
				c0.192,0.039,0.381,0.06,0.573,0.092c0.454,0.075,0.898,0.204,1.338,0.346c1.238,0.401,2.298,1.507,3.463,2.124
				c1.051,0.557,1.539-0.534,1.91-1.432c0.319-0.773,0.297-1.359-0.034-2.104c-0.295-0.664-0.806-1.151-1.196-1.74
				c-0.271-0.408-0.501-0.875-0.726-1.311c-0.081-0.157-0.163-0.313-0.241-0.471c-0.26-0.535-0.547-1.059-0.84-1.577
				c-0.471-0.832-1.097-1.579-1.839-2.183c-0.387-0.315-0.788-0.616-1.218-0.869c-0.357-0.209-0.911-0.547-1.34-0.54
				c-0.074,0.001-0.151,0.037-0.18,0.104C80.922,265.463,80.919,265.471,80.917,265.481z"/>
			<path style="fill:#DADAF9;" d="M86.489,272.24c1.387-0.579,2.6,0.39,3.691,1.017c2.999,1.723,15.013,8.852,15.257,12.791
				c0.087,1.403-0.556,2.622-1.776,3.427c-0.938,0.619-3.04,0.331-3.914,0.029c-1.72-0.593-3.261-1.825-4.663-2.938
				c-2.666-2.115-10.827-9.075-11.014-9.461C83.404,275.736,85.415,272.688,86.489,272.24z"/>
			<path style="fill:#F9D4C3;" d="M68.916,264.173c-0.188,0.262-0.49,0.418-0.789,0.539c-0.527,0.214-1.09,0.358-1.561,0.677
				c-0.282,0.191-0.708,0.583-0.563,0.982c0.049,0.134,0.179,0.235,0.321,0.248c0.124,0.012,0.273-0.029,0.357,0.064
				c0.079,0.088,0.032,0.227-0.027,0.33c-0.232,0.406-0.638,0.799-1.009,1.081c-0.854,0.647-1.559,1.49-2.046,2.444
				c-0.202-0.236-0.503-0.561-0.542-0.877c-0.027-0.217,0.021-0.437,0.077-0.649c0.306-1.17,0.84-2.278,1.552-3.254
				c0.657-0.899,1.552-1.943,2.607-2.343C67.822,263.215,69.899,262.805,68.916,264.173z"/>
		</g>
		<path style="fill:#231869;" d="M73.8,355.45c0.614-1.098,1.106-2.186,0.306-3.553c-0.771-1.317-2.323-2.139-3.875-2.426
			c-1.097-0.202-3.454-0.458-4.42,0.076c-0.657,0.363-0.949,1.558-1.266,2.229c-0.714,1.513-1.5,3.013-2.104,4.574
			c-0.982,2.536-1.828,5.126-2.497,7.768c-0.683,2.696-1.177,5.444-1.482,8.223c-0.118,1.063-0.208,2.13-0.272,3.201
			c-0.051,0.861-0.07,1.827,0.545,2.582c0.307,0.375,0.739,0.642,1.176,0.878c0.429,0.231,0.874,0.442,1.347,0.56
			c0.503,0.126,1.085,0.159,1.538-0.057c0.516-0.245,0.958-0.659,1.306-1.082c0.619-0.752,1.005-1.654,1.369-2.55
			c1.706-4.208,3.053-8.556,4.718-12.782c0.882-2.235,1.927-4.369,2.994-6.52C73.374,356.19,73.594,355.819,73.8,355.45z"/>
	</g>
</g>
<g>
	<path style="fill:#EDECF8;" d="M332.362,230.702l-72.094-41.623c-4.353-2.513-7.914-0.457-7.914,4.569l0,14.255
		c-0.552,5.739-2.945,9.584-6.86,9.532c4.786,5.971,10.928,7.883,16.445,7.261l70.422,40.657c4.352,2.513,7.914,0.457,7.914-4.569
		l0-16.375C340.276,239.384,336.715,233.215,332.362,230.702z"/>
	<g>
		<polygon style="fill:#FE4340;" points="308.864,232.948 261.978,205.879 261.978,210.108 308.864,237.178 		"/>
		<polygon style="fill:#FE4340;" points="308.718,245.171 261.978,218.186 261.978,213.957 308.718,240.942 		"/>
		<polygon style="fill:#FE4340;" points="308.864,225.447 261.978,198.377 261.978,202.607 308.864,229.676 		"/>
	</g>
	<g>
		<path style="fill:#FE4340;" d="M337.108,251.317c0,6.789-4.767,9.54-10.646,6.146c-5.88-3.394-10.646-11.65-10.645-18.438
			c0-6.789,4.766-9.541,10.645-6.147C332.342,236.273,337.108,244.529,337.108,251.317z"/>
		<g>
			<path style="fill:#F8F9F3;" d="M328.216,251.932c0,0.673-0.19,1.085-0.566,1.234c-0.378,0.149-0.806,0.086-1.283-0.19
				c-0.477-0.275-0.904-0.706-1.282-1.291c-0.378-0.585-0.567-1.214-0.567-1.888c0-0.673,0.189-1.084,0.567-1.233
				c0.378-0.149,0.805-0.086,1.282,0.19c0.477,0.275,0.905,0.705,1.283,1.291C328.026,250.629,328.216,251.258,328.216,251.932z
				 M327.957,241.796c0,1.24-0.039,2.373-0.119,3.398c-0.079,1.025-0.185,2.051-0.318,3.076l-2.267-1.308
				c-0.132-1.179-0.242-2.328-0.328-3.449c-0.087-1.121-0.129-2.301-0.129-3.541v-4.11l3.161,1.825V241.796z"/>
		</g>
	</g>
</g>
<g>
	<path style="fill:#EDECF8;" d="M53.308,25.249l67.195,38.794c4.057,2.342,7.377,8.091,7.377,12.776l-0.001,13.286
		c0.514,5.943,2.745,12.103,6.393,16.266c-4.461,0.416-10.185-4.413-15.328-10.931L53.307,57.546
		c-4.056-2.342-7.376-8.091-7.376-12.776V29.508C45.931,24.823,49.25,22.907,53.308,25.249z"/>
	<g>
		<polygon style="fill:#FE4340;" points="119.963,85.27 119.963,89.386 91.393,72.892 91.393,68.776 		"/>
		<polygon style="fill:#FE4340;" points="75.173,52.11 75.173,56.226 119.963,82.086 119.963,77.97 		"/>
		<polygon style="fill:#FE4340;" points="75.173,44.81 75.173,48.925 119.963,74.785 119.963,70.669 		"/>
	</g>
	<path style="fill:#E5322B;" d="M48.629,38.429c0,7.855,5.514,17.406,12.317,21.334c6.802,3.927,12.317,0.743,12.317-7.111
		c0-7.855-5.514-17.406-12.317-21.334C54.144,27.39,48.629,30.573,48.629,38.429z M53.179,47.564
		c-1.151-2.492-1.832-5.133-1.832-7.566c0-2.252,0.583-4.009,1.583-5.181l5.582,9.668L53.179,47.564z M60.946,34.457
		c2.107,1.216,4.054,3.127,5.637,5.369l-5.76,3.325l-5.656-9.797C56.775,32.881,58.776,33.204,60.946,34.457z M68.61,56.637
		l-5.475-9.483l5.729-3.308c1.06,2.394,1.681,4.91,1.681,7.235C70.545,53.587,69.824,55.481,68.61,56.637z M60.946,56.624
		c-2.014-1.163-3.882-2.959-5.426-5.073l5.303-3.062l5.401,9.355C64.709,58.123,62.896,57.749,60.946,56.624z"/>
</g>
</svg>
